<?xml version="1.0" encoding="utf-8"?>
<!-- Generator: Adobe Illustrator 15.0.0, SVG Export Plug-In . SVG Version: 6.00 Build 0)  -->
<!DOCTYPE svg PUBLIC "-//W3C//DTD SVG 1.1//EN" "http://www.w3.org/Graphics/SVG/1.1/DTD/svg11.dtd">
<svg version="1.1" id="Layer_1" xmlns="http://www.w3.org/2000/svg" xmlns:xlink="http://www.w3.org/1999/xlink" x="0px" y="0px"
	 width="10px" height="10px" viewBox="0 0 10 10" enable-background="new 0 0 10 10" xml:space="preserve">
<g>
	<g>
		<polygon points="10.285,-5.437 -14.074,1.595 -0.009,13.775 24.352,6.742 		"/>
	</g>
	<g>
		<path fill="#FFFFFF" d="M0.796-0.257v7.665h-1.729v-7.665H0.796z"/>
		<path fill="#FFFFFF" d="M2.271,3.621c0-0.693-0.021-1.274-0.045-1.773h1.501l0.08,0.773h0.034
			c0.228-0.364,0.785-0.898,1.717-0.898c1.137,0,1.99,0.761,1.99,2.399v3.287H5.82V4.326c0-0.717-0.25-1.205-0.876-1.205
			c-0.478,0-0.762,0.33-0.887,0.648C4.012,3.882,4,4.042,4,4.2v3.208H2.271V3.621z"/>
	</g>
</g>
</svg>
