<?xml version="1.0" encoding="utf-8"?>
<!-- Generator: Adobe Illustrator 15.0.0, SVG Export Plug-In . SVG Version: 6.00 Build 0)  -->
<!DOCTYPE svg PUBLIC "-//W3C//DTD SVG 1.1//EN" "http://www.w3.org/Graphics/SVG/1.1/DTD/svg11.dtd">
<svg version="1.1" id="Layer_1" xmlns="http://www.w3.org/2000/svg" xmlns:xlink="http://www.w3.org/1999/xlink" x="0px" y="0px"
	 width="40px" height="40px" viewBox="0 0 40 40" enable-background="new 0 0 40 40" xml:space="preserve">
<g>
	<path fill="#FF0000" d="M36.356,40H3.644C1.634,40,0,38.365,0,36.356V3.645c0-2.009,1.634-3.644,3.644-3.644h32.713
		C38.365,0.001,40,1.636,40,3.645v32.711C40,38.365,38.365,40,36.356,40z M3.644,0.998c-1.458,0-2.646,1.188-2.646,2.647v32.711
		c0,1.459,1.188,2.647,2.646,2.647h32.713c1.458,0,2.646-1.188,2.646-2.647V3.645c0-1.459-1.188-2.647-2.646-2.647H3.644z"/>
</g>
<g>
	<path fill="#FF0000" d="M19.955,8.374c-6.497,0-11.782,5.285-11.782,11.782c0,6.496,5.285,11.781,11.782,11.781
		c6.496,0,11.781-5.285,11.781-11.781C31.735,13.658,26.45,8.374,19.955,8.374 M19.955,32.212c-3.222,0-6.249-1.253-8.525-3.531
		c-2.278-2.277-3.532-5.305-3.532-8.525c0-3.22,1.254-6.25,3.532-8.525c2.276-2.278,5.304-3.532,8.525-3.532
		c3.22,0,6.248,1.254,8.524,3.532c2.276,2.275,3.532,5.306,3.532,8.525c0,3.221-1.256,6.248-3.532,8.525
		C26.202,30.959,23.175,32.212,19.955,32.212"/>
</g>
<g>
	<path fill="#FF0000" d="M13.999,22.452c-0.377,0-0.75-0.019-1.109-0.056c-2.286-0.229-3.903-1.171-4.553-2.651
		c-0.118-0.266-0.201-0.549-0.251-0.839l0.271-0.045c0.046,0.267,0.124,0.528,0.231,0.774c0.734,1.668,2.792,2.541,5.395,2.542
		c1.896,0,4.082-0.464,6.255-1.42c5.153-2.267,8.314-6.459,7.046-9.344c-0.229-0.522-0.595-0.976-1.085-1.352l0.167-0.218
		c0.528,0.404,0.92,0.896,1.169,1.46c0.65,1.479,0.251,3.307-1.124,5.148c-1.359,1.816-3.511,3.437-6.063,4.559
		C18.203,21.953,15.992,22.452,13.999,22.452"/>
</g>
<g>
	<path fill="#FF0000" d="M17.929,31.572c-1.944,0-3.589-0.486-4.638-1.368l0.177-0.209c2.111,1.775,6.515,1.729,10.708-0.115
		c2.013-0.886,3.775-2.083,5.096-3.464c1.269-1.324,2.05-2.762,2.202-4.047l0.272,0.034c-0.331,2.807-3.328,5.911-7.459,7.728
		c-2.129,0.937-4.317,1.435-6.324,1.441C17.952,31.572,17.94,31.572,17.929,31.572"/>
</g>
<g>
	<path fill="#FF0000" d="M19.001,8.497c-1.143,0-2.389,0.282-3.607,0.818c-2.965,1.303-4.788,3.705-4.063,5.353
		c0.402,0.915,1.526,1.44,3.084,1.44c1.142,0,2.39-0.284,3.606-0.818c2.965-1.303,4.788-3.705,4.063-5.352
		C21.683,9.021,20.558,8.497,19.001,8.497 M14.416,16.384c-1.672,0-2.887-0.586-3.336-1.606c-0.386-0.878-0.152-1.962,0.66-3.048
		c0.794-1.064,2.053-2.012,3.544-2.666c1.251-0.551,2.537-0.843,3.718-0.843c1.671,0,2.887,0.585,3.335,1.606
		c0.387,0.88,0.152,1.96-0.66,3.048c-0.794,1.063-2.054,2.01-3.544,2.667C16.881,16.094,15.595,16.384,14.416,16.384"/>
</g>
<g>
	<path fill="#FF0000" d="M15.433,28.083c-0.435,0-0.861-0.021-1.273-0.062c-2.62-0.266-4.473-1.343-5.217-3.036l0.251-0.109
		c0.702,1.598,2.476,2.618,4.993,2.871c2.545,0.258,5.537-0.302,8.425-1.571c2.888-1.269,5.321-3.097,6.853-5.146
		c1.514-2.028,1.962-4.023,1.259-5.623l0.252-0.11c0.743,1.693,0.285,3.786-1.289,5.897c-1.56,2.086-4.032,3.946-6.963,5.233
		C20.26,27.511,17.719,28.083,15.433,28.083"/>
</g>
<g>
	<path fill="#FF0000" d="M22.855,31.827c-0.859,0-1.853-1.612-2.553-3.018c-1.031-2.062-2.05-4.893-2.873-7.973
		c-0.823-3.082-1.35-6.044-1.485-8.343c-0.098-1.673-0.026-3.716,0.872-3.956l0.071,0.266c-0.543,0.144-0.793,1.518-0.667,3.672
		c0.135,2.282,0.659,5.227,1.476,8.291c0.818,3.062,1.83,5.875,2.852,7.92c0.964,1.932,1.864,2.997,2.408,2.852l0.07,0.265
		C22.971,31.819,22.915,31.827,22.855,31.827"/>
</g>
<g>
	<path fill="#FF0000" d="M26.338,30.427l-0.145-0.233c0.518-0.318,0.402-1.729-0.31-3.774c-0.752-2.165-2.079-4.847-3.738-7.546
		c-3.683-5.999-7.247-9.357-8.266-8.733l-0.144-0.234c0.84-0.516,2.404,0.817,3.569,2.026c1.603,1.666,3.406,4.078,5.074,6.796
		c1.669,2.718,3.006,5.416,3.766,7.6C26.696,27.912,27.178,29.911,26.338,30.427"/>
</g>
<g>
	<path fill="#FF0000" d="M29.383,27.594l-0.219-0.169c1.12-1.448,1.215-3.557,0.269-5.937c-0.957-2.405-2.858-4.792-5.355-6.722
		c-5.133-3.967-11.204-4.743-13.533-1.729l-0.217-0.168c1.183-1.529,3.288-2.188,5.93-1.863c2.618,0.326,5.455,1.586,7.99,3.543
		c2.535,1.96,4.468,4.388,5.442,6.838C30.672,23.861,30.563,26.066,29.383,27.594"/>
</g>
<g>
	<path fill="#FF0000" d="M32.088,20.711l-0.273-0.017c0.148-2.469-0.931-4.867-3.036-6.749c-2.115-1.892-5.011-3.035-8.153-3.225
		c-3.143-0.188-6.155,0.603-8.48,2.229c-2.314,1.618-3.672,3.869-3.819,6.338L8.05,19.273c0.153-2.556,1.552-4.882,3.938-6.549
		c2.375-1.662,5.449-2.469,8.653-2.278c3.204,0.193,6.159,1.362,8.32,3.293C31.131,15.68,32.241,18.154,32.088,20.711"/>
</g>
<g>
	<path fill="#FF0000" d="M11.234,28.354c-1.787-1.782-2.576-4.348-2.224-7.221c0.35-2.862,1.792-5.688,4.06-7.96
		c2.269-2.27,5.092-3.717,7.952-4.073c2.873-0.357,5.438,0.429,7.226,2.211l-0.194,0.194c-3.57-3.565-10.205-2.729-14.789,1.862
		c-4.583,4.591-5.407,11.227-1.835,14.792L11.234,28.354z"/>
</g>
<g>
	<path fill="#FF0000" d="M18.533,32.102c-1.917-0.234-3.558-1.708-4.623-4.148c-1.055-2.416-1.42-5.498-1.029-8.677
		c0.392-3.18,1.495-6.082,3.103-8.17c1.625-2.109,3.575-3.14,5.49-2.905l-0.032,0.274c-3.777-0.464-7.494,4.396-8.287,10.833
		c-0.387,3.133-0.028,6.164,1.007,8.534c1.024,2.349,2.587,3.765,4.404,3.988L18.533,32.102z"/>
</g>
<g>
	<polygon fill="#FF0000" points="12.868,22.257 13.099,18.706 13.65,16.2 14.968,16.2 16.5,15.966 17.796,21.648 15.758,22.189 
		14.026,22.312 	"/>
</g>
<g>
	<polygon fill="#FF0000" points="22.811,19.531 24.784,18.02 26.216,16.482 28.357,19.139 29.479,21.237 27.626,23.193 
		25.42,24.836 24.166,21.931 	"/>
</g>
</svg>
