<?xml version="1.0" encoding="utf-8"?>
<!-- Generator: Adobe Illustrator 15.0.0, SVG Export Plug-In . SVG Version: 6.00 Build 0)  -->
<!DOCTYPE svg PUBLIC "-//W3C//DTD SVG 1.1//EN" "http://www.w3.org/Graphics/SVG/1.1/DTD/svg11.dtd">
<svg version="1.1" id="Layer_1" xmlns="http://www.w3.org/2000/svg" xmlns:xlink="http://www.w3.org/1999/xlink" x="0px" y="0px"
	 width="40px" height="40px" viewBox="0 0 40 40" enable-background="new 0 0 40 40" xml:space="preserve">
<g>
	<path fill="#FF0000" d="M36.354,40H3.644C1.635,40,0,38.364,0,36.355V3.645c0-2.008,1.635-3.643,3.644-3.643h32.71
		c2.011,0,3.646,1.635,3.646,3.643v32.711C39.999,38.364,38.364,40,36.354,40z M3.644,0.999c-1.46,0-2.646,1.187-2.646,2.646v32.711
		c0,1.459,1.186,2.647,2.646,2.647h32.71c1.46,0,2.647-1.188,2.647-2.647V3.645c0-1.459-1.188-2.646-2.647-2.646H3.644z"/>
</g>
<g>
	<path fill="#FF0000" d="M11.797,29.744c0,0-0.646-1.628,0-3.036c0.643-1.407,2.035-2.001,2.035-2.001s1.221-0.544,2.748-0.747
		c0,0,0.39-0.322,0.814-1.306c0.423-0.984,0.678-1.662,0.814-3.172c0.134-1.51,0.255-5.021,0.255-5.021l0.153-2.223
		c0,0-1.255-0.711-1.357-1.321c-0.101-0.612-0.221-0.968,0.238-1.562c0.458-0.594,0.982-1.221,2.306-1.256
		c1.323-0.032,1.696,0.392,2.188,0.815c0.493,0.424,0.764,1.188,0.628,1.611c-0.135,0.424-0.306,0.916-0.916,1.374
		c-0.611,0.458-0.475,0.324-0.475,0.324l0.288,4.02c0,0,0.255,3.426,0.306,3.849c0.052,0.424,0.271,2.019,1.035,3.02l0.441,0.576
		c0,0,2.103,0.255,3.138,0.916c1.035,0.662,1.679,1.475,1.813,1.951c0.136,0.474,0.391,1.661,0.119,2.899
		c0,0-0.458,0.983-2.341,1.577s-4.46,0.849-5.427,0.866c-0.969,0.017-4.105,0-5.582-0.39c-1.475-0.393-2.103-0.815-2.781-1.342
		L11.797,29.744z"/>
</g>
</svg>
