<?xml version="1.0" encoding="utf-8"?>
<!-- Generator: Adobe Illustrator 15.0.0, SVG Export Plug-In . SVG Version: 6.00 Build 0)  -->
<!DOCTYPE svg PUBLIC "-//W3C//DTD SVG 1.1//EN" "http://www.w3.org/Graphics/SVG/1.1/DTD/svg11.dtd">
<svg version="1.1" id="Layer_1" xmlns="http://www.w3.org/2000/svg" xmlns:xlink="http://www.w3.org/1999/xlink" x="0px" y="0px"
	 width="40px" height="40px" viewBox="0 0 40 40" enable-background="new 0 0 40 40" xml:space="preserve">
<g>
	<path fill="#FF0000" d="M36.322,39.964H3.64c-2.007,0-3.64-1.636-3.64-3.642V3.643c0-2.008,1.633-3.641,3.64-3.641h32.683
		c2.007,0,3.641,1.633,3.641,3.641v32.68C39.963,38.328,38.329,39.964,36.322,39.964z M3.64,0.997c-1.457,0-2.643,1.186-2.643,2.646
		v32.68c0,1.457,1.186,2.644,2.643,2.644h32.683c1.458,0,2.643-1.187,2.643-2.644V3.643c0-1.46-1.185-2.646-2.643-2.646H3.64z"/>
</g>
<g>
	<polygon fill="#FF0000" points="11.074,29.729 10.136,21.777 9.035,21.452 9.035,15.377 10.584,14.521 12.633,16.635 14.499,14.97 
		14.499,21.289 15.073,21.891 14.334,29.729 	"/>
</g>
<g>
	<polygon fill="#FF0000" points="17.351,12.892 15.354,13.91 15.354,21.045 17.026,22.389 18.003,31.356 21.836,31.356 
		23.02,21.939 24.567,20.882 24.567,14.235 22.528,12.892 19.961,15.54 	"/>
</g>
<g>
	<polygon fill="#FF0000" points="25.383,15.051 27.381,16.6 29.337,14.521 30.927,15.296 30.927,21.085 29.622,21.859 
		28.848,29.726 25.707,29.726 24.567,21.939 25.326,21.15 	"/>
</g>
<g>
	<path fill="#FF0000" d="M22.467,10.705c0,1.442-1.17,2.612-2.614,2.612c-1.443,0-2.612-1.17-2.612-2.612
		c0-1.444,1.169-2.614,2.612-2.614C21.297,8.091,22.467,9.261,22.467,10.705"/>
</g>
<g>
	<path fill="#FF0000" d="M14.751,12.696c0,1.156-0.937,2.092-2.091,2.092c-1.157,0-2.094-0.936-2.094-2.092
		c0-1.154,0.937-2.092,2.094-2.092C13.814,10.604,14.751,11.542,14.751,12.696"/>
</g>
<g>
	<path fill="#FF0000" d="M29.246,12.696c0,1.156-0.937,2.092-2.095,2.092c-1.153,0-2.09-0.936-2.09-2.092
		c0-1.154,0.937-2.092,2.09-2.092C28.31,10.604,29.246,11.542,29.246,12.696"/>
</g>
</svg>
