<?xml version="1.0" encoding="utf-8"?>
<!-- Generator: Adobe Illustrator 15.0.0, SVG Export Plug-In . SVG Version: 6.00 Build 0)  -->
<!DOCTYPE svg PUBLIC "-//W3C//DTD SVG 1.1//EN" "http://www.w3.org/Graphics/SVG/1.1/DTD/svg11.dtd">
<svg version="1.1" id="Layer_1" xmlns="http://www.w3.org/2000/svg" xmlns:xlink="http://www.w3.org/1999/xlink" x="0px" y="0px"
	 width="40px" height="40px" viewBox="0 0 40 40" enable-background="new 0 0 40 40" xml:space="preserve">
<g>
	<polyline fill="#FF0000" points="35.818,3.444 36.042,3.444 36.152,3.555 36.268,3.555 36.378,3.668 36.489,3.778 36.604,3.778 
		36.712,3.778 36.712,3.89 36.604,3.89 36.604,4.005 36.489,4.005 36.489,4.115 36.489,4.228 36.489,4.338 36.378,4.338 
		36.489,4.338 36.378,4.338 36.378,4.45 36.378,4.562 36.378,4.674 36.378,4.786 36.489,4.786 36.489,4.898 36.489,5.008 
		36.489,5.122 36.489,5.235 36.489,5.122 36.489,5.235 36.378,5.235 36.489,5.235 36.378,5.235 36.489,5.235 36.378,5.235 
		36.378,5.346 36.489,5.346 36.489,5.458 36.378,5.458 36.489,5.458 36.489,5.571 36.378,5.571 36.378,5.683 36.378,5.795 
		36.378,5.906 36.268,5.906 36.268,6.018 36.268,6.128 36.268,6.243 36.268,6.352 36.378,6.352 36.378,6.465 36.378,6.578 
		36.489,6.578 36.489,6.688 36.489,6.8 36.489,6.912 36.378,6.912 36.489,6.912 36.489,7.024 36.489,7.136 36.489,7.024 
		36.489,7.136 36.604,7.136 36.604,7.248 36.489,7.36 36.489,7.248 36.489,7.36 36.604,7.472 36.489,7.472 36.489,7.583 
		36.604,7.583 36.489,7.583 36.489,7.696 36.378,7.808 36.268,7.92 36.268,8.031 36.152,8.031 36.152,8.144 36.042,8.144 
		36.042,8.253 35.932,8.368 35.932,8.479 35.818,8.479 35.818,8.591 35.708,8.704 35.598,8.814 35.482,8.926 35.261,9.149 
		35.261,9.374 35.261,9.485 35.261,9.597 35.146,9.708 35.146,9.819 35.146,9.933 35.146,10.044 35.036,10.27 35.036,10.382 
		34.921,10.604 34.921,10.715 34.921,10.827 34.921,10.94 34.921,11.052 34.812,11.163 34.812,11.276 34.812,11.387 34.812,11.499 
		34.812,11.61 34.7,11.61 34.7,11.723 34.589,11.723 34.479,11.723 34.364,11.723 34.253,11.723 34.141,11.723 34.141,11.835 
		34.029,11.947 33.915,12.059 33.915,12.17 33.807,12.17 33.691,12.17 33.691,12.283 33.807,12.283 33.691,12.283 33.691,12.395 
		33.691,12.283 33.691,12.395 33.691,12.507 33.691,12.619 33.691,12.731 33.581,12.731 33.468,12.731 33.468,12.843 33.581,12.843 
		33.581,12.953 33.468,12.953 33.581,12.953 33.468,12.953 33.468,13.065 33.468,13.179 33.468,13.291 33.581,13.291 33.468,13.291 
		33.468,13.4 33.581,13.4 33.581,13.513 33.581,13.625 33.581,13.736 33.581,13.625 33.581,13.736 33.691,13.736 33.691,13.848 
		33.691,13.96 33.691,13.848 33.691,13.96 33.807,13.96 33.807,14.072 33.691,14.072 33.691,14.184 33.581,14.184 33.691,14.184 
		33.691,14.296 33.581,14.296 33.691,14.296 33.581,14.296 33.581,14.408 33.581,14.52 33.581,14.632 33.691,14.632 33.691,14.744 
		33.468,15.751 33.357,15.974 33.357,16.087 33.357,16.199 33.247,16.534 33.134,17.206 33.134,17.429 33.021,17.654 32.911,18.437 
		32.911,18.548 32.8,18.548 32.8,18.66 32.8,18.771 32.8,18.882 32.686,18.995 32.686,19.107 32.8,19.107 32.8,19.219 
		32.911,19.219 32.911,19.331 33.021,19.331 32.911,19.331 33.021,19.331 33.021,19.442 32.911,19.442 32.911,19.555 32.911,19.665 
		33.021,19.665 33.021,19.779 32.911,19.779 32.911,19.892 33.021,19.892 32.911,19.892 33.021,19.892 33.021,20.001 32.911,20.001 
		32.911,20.115 32.911,20.225 32.911,20.115 33.021,20.115 33.021,20.225 33.134,20.225 33.021,20.225 33.134,20.225 33.021,20.225 
		33.021,20.338 33.134,20.338 33.021,20.338 33.021,20.452 32.911,20.452 33.021,20.452 32.911,20.452 32.911,20.562 33.021,20.562 
		32.911,20.562 32.8,20.562 32.911,20.674 32.8,20.674 32.8,20.562 32.8,20.674 32.8,20.562 32.8,20.674 32.8,20.562 32.8,20.674 
		32.686,20.674 32.686,20.562 32.686,20.674 32.686,20.785 32.8,20.785 32.8,20.896 32.8,21.008 32.911,21.008 32.8,21.008 
		32.8,21.121 32.686,21.121 32.686,21.232 32.686,21.346 32.686,21.456 32.575,21.456 32.575,21.568 32.575,21.682 32.46,21.682 
		32.575,21.682 32.575,21.791 32.46,21.791 32.46,21.902 32.46,22.016 32.46,22.129 32.46,22.016 32.46,22.129 32.46,22.24 
		32.46,22.354 32.46,22.463 32.46,22.574 32.46,22.686 32.46,22.799 32.46,22.909 32.46,23.021 32.46,23.135 32.46,23.021 
		32.46,23.135 32.575,23.135 32.575,23.246 32.575,23.357 32.575,23.471 32.575,23.357 32.575,23.471 32.46,23.471 32.46,23.582 
		32.46,23.693 32.46,23.807 32.46,23.918 32.46,24.027 32.46,24.143 32.575,24.143 32.46,24.143 32.35,24.143 32.236,24.143 
		32.126,24.143 32.016,24.143 31.9,24.143 31.9,24.254 31.9,24.365 31.9,24.479 32.016,24.479 32.016,24.591 32.016,24.701 
		32.016,24.814 32.016,24.924 32.016,25.036 32.126,25.036 32.126,25.148 32.016,25.148 31.9,25.148 32.016,25.148 32.016,25.262 
		31.9,25.373 31.9,25.482 31.9,25.596 31.9,25.709 31.9,25.818 32.016,25.818 32.016,25.932 32.016,26.043 32.016,26.154 
		32.016,26.268 31.9,26.268 31.9,26.379 31.9,26.492 31.9,26.604 31.9,26.714 31.9,26.827 31.79,26.827 31.9,26.827 31.79,26.827 
		31.79,26.939 31.9,26.939 31.9,27.051 31.9,27.164 31.9,27.275 31.9,27.387 31.9,27.498 31.79,27.498 31.79,27.607 31.9,27.607 
		31.9,27.721 32.016,27.721 32.016,27.834 32.126,27.834 32.126,27.945 32.236,27.945 32.126,27.945 32.126,28.057 32.236,28.057 
		32.126,28.057 32.126,28.168 32.236,28.168 32.126,28.168 32.126,28.281 32.016,28.281 32.016,28.393 32.016,28.504 32.016,28.617 
		32.016,28.729 32.126,28.729 32.126,28.842 32.126,28.953 32.236,29.064 32.126,29.178 32.126,29.289 32.126,29.4 32.126,29.512 
		32.016,29.625 32.016,29.736 32.016,29.85 32.016,29.959 32.126,29.959 32.016,29.959 31.9,29.959 31.79,29.959 31.68,29.959 
		31.568,30.07 31.23,30.293 31.23,30.408 31.12,30.52 30.896,30.631 30.784,30.742 30.784,30.854 30.673,30.854 30.448,31.189 
		29.891,31.189 29.552,31.303 29.439,31.303 29.331,31.412 29.218,31.748 28.995,31.973 28.771,32.309 28.657,32.42 28.546,32.531 
		28.436,32.645 28.323,32.756 28.212,32.867 28.098,33.092 27.984,33.203 27.984,33.428 27.876,33.428 27.65,33.316 27.538,33.203 
		27.204,32.98 26.979,32.867 26.757,32.756 26.421,32.645 26.195,32.531 25.973,32.309 25.861,32.197 25.749,32.197 25.639,32.086 
		25.413,32.086 25.302,32.197 25.302,32.42 25.189,32.756 25.189,32.98 25.079,32.98 25.079,33.203 24.968,33.539 24.854,33.652 
		24.854,33.764 24.632,33.877 24.404,33.764 24.296,33.764 24.07,33.652 23.96,33.539 23.848,33.539 23.624,33.316 23.396,33.539 
		23.286,33.652 23.177,33.764 23.062,33.877 22.841,33.988 22.616,34.211 22.505,34.322 22.284,34.434 22.057,34.547 21.833,34.547 
		21.497,34.434 21.273,34.434 21.05,34.547 21.05,34.656 20.938,34.77 20.938,35.107 20.827,35.33 20.714,35.553 20.489,35.889 
		20.267,36.113 20.155,36.113 20.044,36.113 19.708,36.223 19.483,36.113 19.37,36.113 19.146,36.002 19.036,35.889 18.923,35.777 
		18.7,35.777 18.479,35.553 18.479,35.33 18.364,35.219 18.364,35.107 18.253,34.77 18.14,34.77 17.915,34.77 17.692,34.77 
		17.581,34.881 17.581,35.107 17.468,35.33 17.468,35.553 17.468,35.889 17.468,36.113 17.468,36.336 17.468,36.562 17.358,36.785 
		17.245,36.896 17.136,37.008 16.911,37.119 16.575,37.119 16.353,37.119 16.128,37.119 15.792,37.23 15.569,37.119 15.345,37.119 
		15.231,37.119 15.009,37.23 14.896,37.455 14.786,37.564 14.673,37.678 14.562,37.678 14.337,37.789 14.114,37.678 13.78,37.678 
		13.442,37.678 13.218,37.678 12.995,37.564 12.771,37.455 12.771,37.344 12.657,37.119 12.435,37.008 12.435,36.896 12.21,36.785 
		12.099,36.672 11.987,36.562 11.653,36.562 11.54,36.672 11.429,36.672 11.093,36.896 10.868,37.008 10.757,37.119 10.646,37.119 
		10.536,37.119 10.536,36.896 10.421,36.672 10.421,36.449 10.31,36.336 10.31,36.113 10.31,35.889 10.31,35.666 10.31,35.33 
		10.31,35.107 10.31,34.881 10.087,34.656 9.862,34.656 9.64,34.547 9.526,34.322 9.302,34.1 9.079,33.764 8.854,33.539 
		8.63,33.428 8.405,33.316 8.294,33.203 8.183,32.98 8.071,32.98 7.851,32.756 7.851,32.645 7.735,32.531 7.626,32.197 
		7.513,32.086 7.513,31.973 7.29,31.639 7.065,31.412 7.065,31.303 6.841,31.189 6.729,31.078 6.505,30.965 6.505,30.854 
		6.282,30.631 5.946,30.408 5.835,30.184 5.72,30.07 5.61,29.959 5.499,29.736 5.388,29.625 5.276,29.512 5.165,29.4 4.94,29.178 
		4.716,28.842 4.603,28.617 4.491,28.393 4.38,28.393 4.155,28.057 4.155,27.834 4.155,27.721 4.267,27.607 4.38,27.498 
		4.716,27.387 4.716,27.275 4.829,27.275 4.94,27.275 5.165,27.387 5.499,27.387 5.61,27.275 5.499,27.051 5.388,26.827 
		5.165,26.492 5.165,26.268 5.056,26.043 5.056,25.709 4.94,25.596 4.94,25.482 5.165,25.262 5.165,25.148 5.499,25.036 
		5.72,25.036 5.946,25.036 6.169,24.924 6.282,24.924 6.505,24.814 6.729,24.701 6.952,24.591 7.29,24.591 7.513,24.591 
		7.735,24.591 8.071,24.591 8.294,24.591 8.521,24.591 8.854,24.701 8.964,24.701 9.079,24.701 9.302,24.814 9.526,24.814 
		9.749,24.701 9.862,24.591 9.974,24.479 10.087,24.254 10.198,24.254 10.421,23.918 10.536,23.693 10.536,23.471 10.646,23.135 
		10.757,22.909 10.868,22.686 10.868,22.463 10.981,22.354 10.981,22.129 11.093,21.902 11.206,21.682 11.206,21.568 11.206,21.346 
		11.206,21.232 10.868,21.121 10.536,20.225 10.646,20.115 10.868,20.001 10.981,19.892 11.093,19.779 11.315,19.665 11.429,19.555 
		11.54,19.442 11.653,19.331 11.765,19.107 11.987,18.995 11.987,18.882 12.099,18.66 12.21,18.548 12.21,18.437 12.323,18.326 
		12.323,18.099 12.435,17.987 12.55,17.876 12.657,17.654 12.771,17.542 12.882,17.429 13.108,17.318 13.218,17.318 13.331,17.318 
		13.556,17.206 13.665,17.206 13.78,17.094 14.001,17.094 14.114,16.981 14.228,16.87 14.448,16.757 14.562,16.646 14.562,16.534 
		14.673,16.311 14.673,16.199 14.786,16.087 14.786,15.974 14.786,15.861 14.896,15.637 14.896,15.526 14.786,15.415 14.786,15.303 
		14.673,15.193 14.673,15.081 14.673,14.968 14.673,14.855 14.673,14.744 14.673,14.632 14.562,14.52 14.562,14.408 14.562,14.296 
		14.562,14.184 14.562,14.072 14.562,13.96 14.562,13.848 14.562,13.736 14.562,13.625 14.448,13.625 14.448,13.513 14.448,13.4 
		14.448,13.291 14.562,13.291 14.562,13.179 14.562,13.065 14.562,12.953 14.562,12.843 14.562,12.731 14.562,12.619 14.673,12.507 
		14.673,12.395 14.786,12.395 14.786,12.283 14.896,12.283 15.009,12.283 15.009,12.17 15.009,12.059 15.009,11.947 15.12,11.947 
		15.12,11.835 15.009,11.723 15.009,11.61 14.896,11.499 14.786,11.499 14.786,11.387 14.896,11.276 14.896,11.163 14.896,11.052 
		14.786,11.052 14.673,11.052 14.562,11.052 14.448,10.94 14.337,10.827 14.228,10.715 14.228,10.604 14.114,10.494 14.114,10.382 
		14.114,10.27 14.114,10.157 14.001,10.044 14.001,9.933 14.114,9.819 14.114,9.708 14.114,9.597 14.114,9.485 14.114,9.374 
		14.001,9.261 13.892,9.261 13.892,9.149 13.892,9.037 13.892,8.926 14.001,8.814 14.001,8.704 13.892,8.704 13.892,8.591 
		13.78,8.591 13.665,8.591 13.665,8.479 13.665,8.368 13.665,8.253 13.556,8.253 13.442,8.253 13.442,8.144 13.331,8.144 
		13.218,8.144 13.108,8.144 12.995,8.144 12.882,8.144 12.771,8.144 12.771,8.031 12.657,8.031 12.55,8.031 12.435,7.92 
		12.323,7.92 12.323,8.031 12.21,8.031 12.21,7.92 12.099,7.92 12.099,8.031 11.987,8.031 11.876,8.031 11.765,8.031 11.653,7.92 
		11.54,7.92 11.429,7.92 11.429,7.808 11.315,7.808 11.315,7.696 11.206,7.696 11.093,7.696 11.093,7.583 10.981,7.583 
		10.981,7.472 10.868,7.472 10.757,7.472 10.646,7.472 10.536,7.36 10.421,7.36 10.31,7.248 10.31,7.136 10.31,7.024 10.421,7.024 
		10.536,6.912 10.646,6.912 10.757,6.912 10.868,6.8 10.981,6.912 11.093,6.912 11.315,6.912 11.429,6.912 11.54,6.8 11.765,6.8 
		11.876,6.8 11.987,6.8 12.21,6.688 12.323,6.688 12.435,6.578 12.657,6.352 12.771,6.243 12.882,6.128 12.995,6.018 12.995,5.906 
		13.108,5.906 13.218,5.795 13.442,5.795 13.556,5.683 13.665,5.683 13.78,5.571 14.001,5.571 14.114,5.458 14.337,5.458 
		14.448,5.458 14.673,5.346 14.786,5.346 15.009,5.346 15.231,5.346 15.454,5.235 15.679,5.235 15.905,5.235 16.017,5.235 
		16.239,5.235 16.353,5.235 16.464,5.122 16.687,5.122 16.798,5.122 17.022,5.122 17.245,5.008 17.358,5.008 17.468,5.008 
		17.692,5.008 17.806,5.122 18.03,5.235 18.14,5.346 18.253,5.458 18.364,5.571 18.479,5.683 18.591,5.906 18.813,6.018 
		18.923,6.243 19.036,6.352 19.146,6.465 19.37,6.578 19.483,6.688 19.708,6.8 19.821,6.8 19.933,6.8 20.155,6.912 20.267,6.8 
		20.378,6.8 20.604,6.688 20.714,6.688 20.827,6.688 21.05,6.578 21.161,6.578 21.273,6.578 21.497,6.465 21.607,6.465 
		21.723,6.465 21.833,6.352 22.057,6.352 22.171,6.352 22.284,6.352 22.505,6.352 22.616,6.352 22.841,6.352 22.952,6.352 
		23.177,6.243 23.396,6.352 23.514,6.352 23.624,6.352 23.848,6.352 23.96,6.352 24.07,6.352 24.296,6.352 24.404,6.465 
		24.632,6.465 24.743,6.465 24.968,6.465 25.079,6.465 25.302,6.578 25.413,6.465 25.639,6.465 25.749,6.465 25.973,6.243 
		26.087,6.128 26.309,6.018 26.421,5.906 26.532,5.795 26.645,5.795 26.868,5.683 26.979,5.683 27.204,5.683 27.314,5.683 
		27.427,5.683 27.538,5.795 27.766,5.795 27.876,6.018 27.984,6.128 28.212,6.128 28.323,6.128 28.436,6.018 28.546,6.018 
		28.657,6.018 28.884,6.018 28.995,6.128 29.218,6.243 29.331,6.352 29.439,6.465 29.665,6.465 29.777,6.465 29.891,6.465 
		30.001,6.465 30.227,6.352 30.337,6.352 30.562,6.128 30.673,6.018 30.784,5.906 30.784,5.795 30.673,5.571 30.448,5.571 
		30.337,5.458 30.111,5.458 30.001,5.458 29.891,5.346 29.777,5.346 29.665,5.235 29.439,5.122 29.439,5.008 29.331,4.898 
		29.331,4.674 29.331,4.562 29.439,4.45 29.439,4.228 29.552,4.115 29.665,4.005 29.665,3.89 29.777,3.778 29.777,3.668 
		30.001,3.668 30.111,3.668 30.227,3.668 30.562,3.778 30.673,3.89 30.784,4.005 30.896,4.005 31.12,4.115 31.23,4.115 
		31.343,4.115 31.568,4.228 31.68,4.115 31.79,4.115 31.9,3.89 31.9,3.778 31.79,3.668 31.9,3.555 31.9,3.332 32.126,3.332 
		32.236,3.332 32.46,3.444 32.575,3.444 32.686,3.444 32.911,3.332 33.021,3.332 33.134,3.332 33.357,3.444 33.468,3.444 
		33.581,3.444 33.807,3.332 33.915,3.22 34.029,2.997 34.141,2.885 34.253,2.772 34.364,2.662 34.479,2.662 34.589,2.662 
		34.812,2.549 34.921,2.437 35.036,2.437 35.146,2.437 35.261,2.549 35.37,2.772 35.37,2.885 35.482,3.109 35.598,3.22 
		35.708,3.332 35.818,3.444 	"/>
</g>
</svg>
