<?xml version="1.0" encoding="utf-8"?>
<!-- Generator: Adobe Illustrator 15.0.0, SVG Export Plug-In . SVG Version: 6.00 Build 0)  -->
<!DOCTYPE svg PUBLIC "-//W3C//DTD SVG 1.1//EN" "http://www.w3.org/Graphics/SVG/1.1/DTD/svg11.dtd">
<svg version="1.1" id="Layer_1" xmlns="http://www.w3.org/2000/svg" xmlns:xlink="http://www.w3.org/1999/xlink" x="0px" y="0px"
	 width="40px" height="40px" viewBox="0 0 40 40" enable-background="new 0 0 40 40" xml:space="preserve">
<circle id="circle" fill="#020202" cx="20.263" cy="19.548" r="16.972"/>
<g>
	<g>
		<path fill="#FFFFFF" stroke="#FFFFFF" stroke-width="0.25" d="M20.167,2.791c-9.266,0-16.804,7.536-16.804,16.804
			c0,9.262,7.538,16.799,16.804,16.799c9.265,0,16.804-7.537,16.804-16.799C36.973,10.327,29.434,2.791,20.167,2.791 M20.167,36.789
			c-4.594,0-8.912-1.787-12.156-5.038c-3.252-3.247-5.04-7.565-5.04-12.156c0-4.594,1.788-8.914,5.04-12.16
			c3.244-3.25,7.562-5.038,12.156-5.038c4.592,0,8.909,1.789,12.158,5.038c3.245,3.246,5.036,7.565,5.036,12.16
			c0,4.59-1.791,8.909-5.036,12.156C29.076,35.002,24.76,36.789,20.167,36.789"/>
	</g>
	<g>
		<path fill="#FFFFFF" stroke="#FFFFFF" stroke-width="0.25" d="M11.674,22.871c-0.537,0-1.069-0.027-1.582-0.08
			c-3.26-0.327-5.565-1.671-6.492-3.78c-0.167-0.381-0.287-0.783-0.36-1.199l0.388-0.062c0.065,0.38,0.177,0.752,0.33,1.102
			c1.048,2.378,3.983,3.625,7.694,3.625c2.706,0,5.823-0.66,8.921-2.024c7.35-3.232,11.86-9.212,10.051-13.325
			c-0.329-0.744-0.851-1.394-1.55-1.926l0.238-0.314c0.754,0.576,1.312,1.279,1.668,2.084c0.927,2.108,0.357,4.716-1.604,7.341
			c-1.937,2.591-5.005,4.902-8.644,6.5C17.671,22.157,14.517,22.871,11.674,22.871"/>
	</g>
	<g>
		<path fill="#FFFFFF" stroke="#FFFFFF" stroke-width="0.25" d="M17.279,35.876c-2.771,0-5.117-0.692-6.613-1.951l0.25-0.298
			c3.012,2.532,9.292,2.466,15.273-0.166c2.869-1.26,5.383-2.968,7.268-4.938c1.811-1.891,2.927-3.94,3.143-5.771l0.387,0.047
			c-0.471,4.004-4.747,8.43-10.637,11.021c-3.037,1.337-6.158,2.048-9.019,2.056C17.312,35.876,17.295,35.876,17.279,35.876"/>
	</g>
	<g>
		<path fill="#FFFFFF" stroke="#FFFFFF" stroke-width="0.25" d="M18.808,2.966c-1.631,0-3.407,0.403-5.144,1.168
			c-4.227,1.86-6.828,5.285-5.795,7.635c0.574,1.305,2.178,2.053,4.398,2.053c1.63,0,3.41-0.405,5.143-1.167
			c4.229-1.858,6.83-5.284,5.796-7.633C22.632,3.714,21.029,2.966,18.808,2.966 M12.268,14.215c-2.385,0-4.115-0.836-4.758-2.29
			C6.96,10.672,7.293,9.127,8.452,7.58c1.13-1.519,2.926-2.872,5.054-3.805c1.787-0.786,3.619-1.201,5.303-1.201
			c2.382,0,4.119,0.834,4.757,2.29c0.553,1.252,0.217,2.796-0.94,4.347c-1.133,1.517-2.929,2.867-5.057,3.804
			C15.784,13.801,13.953,14.215,12.268,14.215"/>
	</g>
	<g>
		<path fill="#FFFFFF" stroke="#FFFFFF" stroke-width="0.25" d="M13.72,30.9c-0.622,0-1.23-0.031-1.816-0.09
			c-3.737-0.377-6.379-1.914-7.442-4.33l0.36-0.155c0.999,2.278,3.531,3.733,7.119,4.095c3.631,0.367,7.898-0.431,12.015-2.238
			c4.121-1.812,7.593-4.418,9.772-7.341c2.158-2.895,2.801-5.739,1.799-8.021l0.358-0.156c1.06,2.414,0.405,5.401-1.839,8.41
			c-2.227,2.976-5.752,5.628-9.931,7.464C20.604,30.083,16.978,30.9,13.72,30.9"/>
	</g>
	<g>
		<path fill="#FFFFFF" stroke="#FFFFFF" stroke-width="0.25" d="M24.307,36.239c-1.227,0-2.646-2.298-3.642-4.304
			c-1.471-2.94-2.924-6.978-4.098-11.371c-1.174-4.395-1.924-8.618-2.117-11.899c-0.141-2.383-0.037-5.299,1.242-5.641l0.1,0.379
			c-0.775,0.205-1.128,2.165-0.949,5.237c0.191,3.255,0.937,7.456,2.105,11.823c1.166,4.37,2.607,8.379,4.065,11.296
			c1.377,2.755,2.659,4.274,3.436,4.068l0.102,0.378C24.471,36.229,24.391,36.239,24.307,36.239"/>
	</g>
	<g>
		<path fill="#FFFFFF" stroke="#FFFFFF" stroke-width="0.25" d="M29.271,34.242l-0.205-0.333c0.738-0.453,0.57-2.468-0.44-5.382
			c-1.073-3.088-2.969-6.911-5.331-10.762C18.04,9.208,12.958,4.419,11.502,5.31l-0.205-0.333c1.2-0.735,3.43,1.166,5.091,2.889
			c2.288,2.376,4.857,5.816,7.237,9.693c2.378,3.876,4.287,7.725,5.372,10.837C29.779,30.657,30.468,33.505,29.271,34.242"/>
	</g>
	<g>
		<path fill="#FFFFFF" stroke="#FFFFFF" stroke-width="0.25" d="M33.614,30.201l-0.312-0.238c1.597-2.066,1.731-5.074,0.384-8.466
			c-1.365-3.431-4.076-6.837-7.638-9.588C18.727,6.25,10.07,5.144,6.747,9.44l-0.31-0.239c1.686-2.18,4.688-3.123,8.457-2.657
			c3.733,0.465,7.78,2.261,11.396,5.053c3.614,2.794,6.37,6.258,7.761,9.75C35.452,24.879,35.299,28.023,33.614,30.201"/>
	</g>
	<g>
		<path fill="#FFFFFF" stroke="#FFFFFF" stroke-width="0.25" d="M37.475,20.387l-0.394-0.025c0.213-3.52-1.325-6.939-4.329-9.624
			c-3.016-2.698-7.146-4.328-11.629-4.6c-4.48-0.267-8.776,0.86-12.092,3.178c-3.303,2.309-5.238,5.519-5.447,9.041l-0.396-0.021
			c0.22-3.647,2.216-6.962,5.617-9.341c3.39-2.369,7.775-3.521,12.341-3.248c4.571,0.273,8.787,1.941,11.867,4.697
			C36.107,13.21,37.691,16.741,37.475,20.387"/>
	</g>
	<g>
		<path fill="#FFFFFF" stroke="#FFFFFF" stroke-width="0.25" d="M7.729,31.286C5.182,28.742,4.057,25.084,4.56,20.99
			c0.5-4.083,2.557-8.113,5.791-11.356c3.235-3.236,7.262-5.3,11.34-5.807c4.1-0.51,7.757,0.612,10.306,3.152l-0.276,0.279
			C26.63,2.173,17.165,3.365,10.629,9.912c-6.539,6.55-7.715,16.012-2.617,21.097L7.729,31.286z"/>
	</g>
	<g>
		<path fill="#FFFFFF" stroke="#FFFFFF" stroke-width="0.25" d="M18.141,36.632c-2.735-0.335-5.075-2.437-6.594-5.918
			c-1.502-3.444-2.025-7.841-1.465-12.375c0.559-4.533,2.131-8.674,4.425-11.651c2.318-3.008,5.096-4.478,7.831-4.144l-0.047,0.393
			c-5.387-0.663-10.688,6.267-11.818,15.449c-0.552,4.47-0.042,8.789,1.435,12.169c1.459,3.353,3.691,5.368,6.281,5.689
			L18.141,36.632z"/>
	</g>
</g>
</svg>
