<?xml version="1.0" encoding="utf-8"?>
<!-- Generator: Adobe Illustrator 15.0.0, SVG Export Plug-In . SVG Version: 6.00 Build 0)  -->
<!DOCTYPE svg PUBLIC "-//W3C//DTD SVG 1.1//EN" "http://www.w3.org/Graphics/SVG/1.1/DTD/svg11.dtd">
<svg version="1.1" id="Layer_1" xmlns="http://www.w3.org/2000/svg" xmlns:xlink="http://www.w3.org/1999/xlink" x="0px" y="0px"
	 width="40px" height="40px" viewBox="0 0 40 40" enable-background="new 0 0 40 40" xml:space="preserve">
<polyline points="32.9,4.932 33.369,5.164 33.695,5.307 34.07,5.447 34.398,5.682 34.729,5.822 35.01,5.963 35.01,6.01 35.055,6.01 
	35.055,6.057 35.104,6.102 35.104,6.148 35.055,6.148 35.01,6.148 34.964,6.102 34.915,6.102 34.915,6.148 34.915,6.197 
	34.868,6.197 34.915,6.197 34.915,6.242 34.868,6.242 34.868,6.291 34.868,6.338 34.868,6.387 34.822,6.387 34.775,6.387 
	34.775,6.432 34.729,6.432 34.729,6.477 34.729,6.523 34.68,6.523 34.68,6.57 34.729,6.57 34.68,6.57 34.68,6.617 34.634,6.617 
	34.634,6.666 34.634,6.713 34.587,6.76 34.587,6.807 34.541,6.807 34.541,6.854 34.496,6.854 34.541,6.854 34.541,6.9 34.496,6.947 
	34.496,6.994 34.541,7.041 34.496,7.086 34.496,7.133 34.496,7.18 34.496,7.229 34.496,7.275 34.447,7.275 34.447,7.322 
	34.398,7.322 34.398,7.369 34.447,7.369 34.496,7.369 34.496,7.414 34.447,7.414 34.447,7.463 34.447,7.51 34.398,7.51 
	34.398,7.463 34.398,7.51 34.354,7.51 34.398,7.557 34.447,7.557 34.447,7.602 34.398,7.65 34.354,7.65 34.398,7.695 34.354,7.744 
	34.398,7.744 34.354,7.744 34.398,7.789 34.354,7.789 34.354,7.838 34.307,7.838 34.262,7.838 34.262,7.885 34.262,7.93 
	34.262,7.977 34.307,7.977 34.354,7.977 34.354,8.025 34.307,8.072 34.354,8.072 34.307,8.072 34.354,8.117 34.307,8.117 
	34.307,8.166 34.307,8.213 34.354,8.213 34.354,8.26 34.398,8.213 34.398,8.26 34.354,8.307 34.398,8.307 34.398,8.354 
	34.354,8.354 34.354,8.4 34.354,8.447 34.398,8.447 34.447,8.447 34.447,8.492 34.496,8.541 34.541,8.586 34.541,8.635 
	34.496,8.682 34.541,8.682 34.541,8.729 34.587,8.775 34.587,8.82 34.634,8.775 34.634,8.82 34.68,8.82 34.68,8.869 34.634,8.869 
	34.68,8.916 34.68,8.963 34.634,9.008 34.634,9.057 34.68,9.102 34.634,9.102 34.634,9.148 34.634,9.197 34.587,9.197 34.634,9.244 
	34.587,9.244 34.587,9.291 34.587,9.336 34.634,9.336 34.587,9.336 34.587,9.385 34.541,9.385 34.541,9.43 34.541,9.479 
	34.496,9.43 34.496,9.479 34.447,9.479 34.447,9.523 34.496,9.523 34.496,9.572 34.496,9.619 34.447,9.619 34.447,9.666 
	34.447,9.711 34.496,9.711 34.447,9.711 34.447,9.76 34.398,9.76 34.398,9.805 34.447,9.805 34.447,9.854 34.496,9.854 
	34.496,9.805 34.496,9.854 34.496,9.898 34.541,9.898 34.496,9.945 34.541,9.945 34.541,9.992 34.541,10.039 34.541,10.088 
	34.496,10.088 34.496,10.135 34.447,10.135 34.447,10.182 34.496,10.182 34.496,10.227 34.541,10.227 34.541,10.275 34.541,10.322 
	34.541,10.369 34.541,10.414 34.496,10.414 34.496,10.463 34.541,10.463 34.496,10.463 34.496,10.51 34.496,10.555 34.447,10.555 
	34.447,10.602 34.398,10.602 34.398,10.65 34.447,10.65 34.398,10.65 34.398,10.699 34.398,10.744 34.354,10.744 34.354,10.699 
	34.307,10.744 34.307,10.791 34.262,10.791 34.262,10.838 34.262,10.883 34.307,10.93 34.307,10.977 34.307,11.025 34.262,11.025 
	34.262,11.072 34.262,11.117 34.262,11.166 34.262,11.211 34.212,11.258 34.212,11.307 34.212,11.354 34.166,11.398 34.166,11.445 
	34.166,11.494 34.118,11.494 34.118,11.541 34.118,11.588 34.118,11.633 34.118,11.682 34.118,11.729 34.118,11.775 34.07,11.775 
	34.07,11.82 34.07,11.867 34.07,11.914 34.07,11.963 34.07,12.008 34.07,12.057 34.07,12.104 34.07,12.15 34.07,12.197 34.07,12.24 
	34.118,12.24 34.118,12.289 34.166,12.289 34.166,12.336 34.166,12.385 34.212,12.385 34.212,12.43 34.212,12.479 34.262,12.523 
	34.262,12.572 34.307,12.617 34.307,12.664 34.262,12.664 34.262,12.711 34.307,12.711 34.354,12.711 34.354,12.758 34.354,12.807 
	34.398,12.852 34.398,12.9 34.398,12.945 34.447,12.945 34.447,12.994 34.496,12.994 34.496,13.041 34.496,13.088 34.541,13.133 
	34.541,13.182 34.587,13.182 34.587,13.23 34.587,13.273 34.541,13.273 34.541,13.32 34.541,13.369 34.496,13.416 34.496,13.461 
	34.496,13.51 34.496,13.557 34.541,13.557 34.541,13.604 34.541,13.65 34.496,13.697 34.447,13.744 34.447,13.791 34.447,13.836 
	34.447,13.883 34.447,13.932 34.496,13.932 34.496,13.977 34.496,14.025 34.541,14.025 34.541,14.072 34.541,14.119 34.496,14.119 
	34.496,14.166 34.496,14.211 34.541,14.211 34.541,14.26 34.587,14.307 34.587,14.352 34.634,14.352 34.634,14.307 34.68,14.26 
	34.729,14.26 34.729,14.307 34.729,14.352 34.729,14.4 34.775,14.4 34.822,14.4 34.822,14.447 34.822,14.494 34.775,14.541 
	34.775,14.586 34.775,14.635 34.775,14.68 34.775,14.727 34.775,14.773 34.775,14.822 34.729,14.822 34.729,14.869 34.68,14.869 
	34.68,14.822 34.634,14.869 34.634,14.916 34.634,14.963 34.68,14.963 34.634,15.055 34.68,15.055 34.68,15.104 34.729,15.104 
	34.775,15.15 34.775,15.195 34.775,15.242 34.729,15.242 34.729,15.291 34.729,15.336 34.729,15.385 34.729,15.432 34.729,15.479 
	34.729,15.525 34.775,15.525 34.775,15.57 34.775,15.617 34.729,15.664 34.587,15.854 34.447,15.994 34.398,16.041 34.262,16.227 
	34.118,16.369 34.07,16.414 33.977,16.604 33.886,16.697 33.79,16.791 33.695,16.885 33.602,17.025 33.51,17.117 33.415,17.258 
	33.369,17.352 33.229,17.492 33.134,17.588 33.087,17.729 32.994,17.775 32.9,17.914 32.807,18.008 32.807,18.057 32.574,18.338 
	32.29,18.713 31.961,19.088 31.635,19.51 31.493,19.977 31.447,20.166 31.398,20.447 31.354,20.586 31.307,20.867 31.258,20.963 
	31.213,21.289 31.12,21.574 31.12,21.617 31.073,21.805 30.979,22.273 30.886,22.695 30.886,22.742 30.79,23.166 30.743,23.211 
	30.652,23.635 30.652,23.775 30.604,23.963 30.604,24.008 30.559,24.148 30.559,24.195 30.51,24.385 30.461,24.525 30.461,24.572 
	30.415,24.758 30.415,24.807 30.368,24.945 30.368,24.99 30.32,25.135 30.32,25.18 30.273,25.322 30.273,25.369 30.273,25.414 
	30.229,25.555 30.229,25.602 30.229,25.648 30.184,25.697 30.184,25.744 30.184,25.791 30.184,25.838 30.135,25.838 30.135,25.883 
	30.087,25.932 30.087,25.977 30.04,26.021 29.994,26.021 29.994,26.07 29.948,26.07 29.898,26.117 29.898,26.07 29.854,26.07 
	29.807,26.07 29.759,26.07 29.714,26.07 29.668,26.07 29.619,26.07 29.57,26.07 29.57,26.021 29.525,26.021 29.477,26.021 
	29.432,26.021 29.432,25.977 29.385,25.977 29.337,25.977 29.29,25.977 29.242,25.977 29.242,25.932 29.198,25.932 29.148,25.932 
	29.102,25.977 29.055,25.977 29.008,26.021 29.008,26.07 28.962,26.021 28.962,25.977 28.916,25.977 28.869,25.977 28.869,26.021 
	28.82,25.977 28.773,25.977 28.773,26.021 28.729,26.07 28.682,26.07 28.682,26.117 28.636,26.117 28.636,26.07 28.587,26.07 
	28.541,26.117 28.541,26.166 28.541,26.211 28.587,26.211 28.587,26.26 28.587,26.307 28.587,26.354 28.541,26.354 28.541,26.398 
	28.541,26.445 28.494,26.492 28.494,26.539 28.445,26.588 28.445,26.633 28.4,26.633 28.352,26.633 28.352,26.682 28.307,26.682 
	28.307,26.729 28.26,26.729 28.212,26.773 28.165,26.773 28.165,26.822 28.12,26.822 28.12,26.869 28.072,26.869 28.072,26.914 
	28.025,26.961 27.979,27.008 27.979,27.057 27.884,27.057 27.838,27.057 27.79,27.057 27.79,27.102 27.746,27.15 27.79,27.197 
	27.746,27.197 27.746,27.15 27.746,27.197 27.695,27.197 27.695,27.242 27.646,27.242 27.604,27.242 27.557,27.242 27.557,27.291 
	27.557,27.336 27.604,27.336 27.646,27.336 27.646,27.385 27.604,27.385 27.646,27.385 27.695,27.385 27.646,27.385 27.646,27.43 
	27.604,27.43 27.604,27.477 27.604,27.523 27.604,27.572 27.604,27.617 27.557,27.617 27.557,27.664 27.509,27.664 27.509,27.713 
	27.509,27.76 27.509,27.807 27.509,27.852 27.509,27.898 27.557,27.898 27.557,27.945 27.509,27.945 27.509,27.992 27.509,28.041 
	27.509,28.088 27.509,28.133 27.509,28.178 27.509,28.23 27.509,28.273 27.557,28.318 27.509,28.318 27.462,28.318 27.462,28.369 
	27.462,28.414 27.462,28.461 27.416,28.461 27.416,28.508 27.369,28.555 27.369,28.604 27.32,28.604 27.275,28.604 27.229,28.65 
	27.182,28.65 27.182,28.604 27.182,28.65 27.182,28.697 27.135,28.697 27.086,28.697 27.042,28.697 27.042,28.742 26.995,28.742 
	26.995,28.791 27.042,28.791 27.042,28.836 27.042,28.883 27.042,28.93 27.042,28.977 27.086,28.977 27.086,29.023 27.135,29.023 
	27.135,29.072 27.086,29.117 27.086,29.166 27.086,29.213 27.042,29.213 27.042,29.258 27.042,29.307 26.995,29.352 27.042,29.398 
	26.995,29.398 27.042,29.398 27.042,29.445 26.995,29.445 27.042,29.445 27.086,29.494 27.042,29.494 27.042,29.539 27.086,29.539 
	27.086,29.586 27.086,29.635 27.086,29.684 27.086,29.729 27.086,29.773 27.042,29.818 27.042,29.867 26.995,29.867 26.995,29.916 
	26.995,29.961 27.042,29.961 27.042,30.008 27.086,30.008 27.086,30.057 27.086,30.008 27.135,30.008 27.135,30.057 27.135,30.104 
	27.086,30.15 27.086,30.195 27.086,30.15 27.135,30.15 27.135,30.195 27.135,30.242 27.135,30.291 27.182,30.291 27.182,30.336 
	27.182,30.383 27.229,30.383 27.275,30.383 27.275,30.43 27.32,30.43 27.275,30.479 27.275,30.525 27.229,30.57 27.182,30.57 
	27.182,30.619 27.229,30.619 27.229,30.664 27.275,30.664 27.275,30.709 27.32,30.709 27.369,30.709 27.32,30.76 27.32,30.805 
	27.275,30.805 27.32,30.805 27.32,30.852 27.275,30.852 27.32,30.852 27.32,30.898 27.32,30.947 27.275,30.947 27.275,30.994 
	27.229,30.994 27.229,31.039 27.275,31.039 27.275,31.088 27.32,31.039 27.32,31.088 27.369,31.088 27.369,31.133 27.416,31.133 
	27.369,31.133 27.416,31.133 27.416,31.18 27.416,31.227 27.416,31.273 27.462,31.273 27.462,31.322 27.462,31.369 27.416,31.369 
	27.462,31.369 27.416,31.414 27.462,31.414 27.462,31.461 27.462,31.508 27.462,31.557 27.509,31.557 27.509,31.604 27.557,31.604 
	27.557,31.648 27.557,31.604 27.604,31.604 27.604,31.648 27.604,31.604 27.646,31.604 27.646,31.648 27.646,31.604 27.695,31.648 
	27.695,31.604 27.746,31.648 27.695,31.648 27.746,31.648 27.746,31.697 27.79,31.697 27.79,31.742 27.79,31.789 27.838,31.789 
	27.79,31.789 27.79,31.836 27.79,31.789 27.746,31.789 27.746,31.836 27.695,31.836 27.695,31.885 27.746,31.885 27.746,31.932 
	27.695,31.932 27.695,31.979 27.646,31.979 27.646,32.025 27.646,31.979 27.646,32.025 27.646,32.07 27.604,32.07 27.604,32.025 
	27.604,32.07 27.557,32.07 27.509,32.07 27.509,32.025 27.462,32.025 27.416,32.07 27.416,32.119 27.416,32.164 27.369,32.119 
	27.369,32.164 27.32,32.164 27.369,32.164 27.369,32.213 27.369,32.258 27.416,32.258 27.416,32.305 27.416,32.352 27.416,32.4 
	27.416,32.445 27.369,32.445 27.369,32.494 27.369,32.541 27.369,32.586 27.369,32.635 27.32,32.635 27.32,32.68 27.275,32.68 
	27.32,32.727 27.275,32.727 27.275,32.773 27.275,32.867 27.229,32.867 27.229,32.916 27.229,32.961 27.275,33.01 27.275,33.057 
	27.275,33.1 27.275,33.148 27.275,33.195 27.32,33.195 27.275,33.242 27.32,33.242 27.32,33.289 27.369,33.289 27.32,33.338 
	27.32,33.385 27.32,33.432 27.32,33.477 27.369,33.477 27.416,33.477 27.416,33.711 26.854,36.383 26.758,36.713 26.714,36.992 
	26.714,37.086 26.619,37.508 26.385,37.459 25.962,37.459 25.773,37.414 25.634,37.414 25.494,37.367 25.354,37.367 25.166,37.367 
	25.025,37.367 24.79,37.367 24.557,37.32 24.368,37.273 24.135,37.229 23.994,37.229 23.807,37.182 23.572,37.182 23.384,37.182 
	23.195,37.182 23.01,37.135 22.82,37.135 22.682,37.086 22.541,37.039 22.307,36.992 22.072,36.945 21.885,36.945 21.742,36.896 
	21.509,36.852 21.369,36.807 21.229,36.76 20.9,36.664 20.712,36.617 20.525,36.617 20.384,36.57 20.289,36.523 20.056,36.523 
	19.87,36.43 19.684,36.383 19.587,36.289 19.446,36.195 19.258,36.15 19.165,36.055 18.979,35.963 18.745,35.82 18.603,35.773 
	18.462,35.729 18.228,35.729 18.087,35.633 17.993,35.539 17.854,35.4 17.76,35.258 17.619,35.07 17.571,34.885 17.525,34.791 
	17.431,34.51 17.382,34.414 17.292,34.229 17.292,34.088 17.292,33.898 17.292,33.711 17.336,33.477 17.336,33.289 17.336,33.1 
	17.382,32.916 17.382,32.773 17.431,32.586 17.431,32.445 17.477,32.258 17.477,31.979 17.525,31.789 17.571,31.461 17.571,31.18 
	17.571,30.994 17.571,30.805 17.571,30.664 17.571,30.479 17.525,30.291 17.477,30.104 17.477,29.961 17.382,29.818 17.292,29.635 
	17.198,29.445 17.149,29.307 17.103,29.166 17.009,29.023 16.963,28.883 16.775,28.604 16.729,28.461 16.634,28.369 16.493,28.133 
	16.353,27.992 16.258,27.852 16.118,27.617 16.024,27.523 15.931,27.43 15.79,27.336 15.51,27.15 15.275,27.008 15.181,26.961 
	14.946,26.822 14.805,26.773 14.665,26.682 14.478,26.588 14.337,26.492 14.196,26.398 14.01,26.307 13.822,26.211 13.683,26.166 
	13.541,26.117 13.213,26.166 12.884,26.166 12.557,26.117 12.322,26.07 12.23,26.07 12.042,26.07 11.808,26.021 11.524,26.021 
	11.385,26.021 11.245,26.021 11.104,26.021 10.727,25.977 10.54,25.932 10.4,25.883 10.258,25.791 10.072,25.697 9.932,25.602 
	9.744,25.555 9.697,25.414 9.604,25.18 9.604,25.039 9.604,24.854 9.604,24.758 9.604,24.572 9.557,24.432 9.508,24.195 
	9.461,23.914 9.416,23.727 9.368,23.539 9.322,23.4 9.229,23.26 9.088,23.025 8.899,22.883 8.76,22.742 8.571,22.557 8.479,22.416 
	8.385,22.273 8.244,22.086 8.149,21.9 8.055,21.758 7.963,21.617 7.915,21.477 7.776,21.289 7.586,21.104 7.446,21.057 
	7.259,20.914 7.073,20.867 6.931,20.82 6.79,20.773 6.65,20.727 6.367,20.682 6.042,20.682 5.665,20.586 5.479,20.586 5.291,20.586 
	5.151,20.586 5.008,20.635 4.821,20.635 4.54,20.635 4.401,20.494 4.306,20.398 4.26,20.305 4.119,20.119 4.119,19.977 
	4.166,19.791 4.211,19.65 4.26,19.461 4.353,19.32 4.445,19.135 4.494,18.945 4.588,18.809 4.634,18.666 4.729,18.477 4.774,18.338 
	4.916,18.104 5.008,18.008 5.103,17.822 5.244,17.635 5.337,17.447 5.291,17.213 5.195,16.977 5.103,16.791 5.103,16.648 
	5.103,16.369 5.151,16.135 5.244,15.9 5.337,15.713 5.432,15.479 5.524,15.385 5.62,15.195 5.759,15.008 5.854,14.869 5.947,14.68 
	5.993,14.541 6.042,14.4 6.087,14.119 6.133,13.883 6.133,13.744 6.51,12.807 6.805,12.734 6.979,12.664 7.353,12.617 7.869,12.15 
	8.29,11.82 8.712,11.445 9.088,11.211 9.461,11.072 9.79,10.883 10.212,10.699 10.587,10.699 10.913,10.699 11.291,10.699 
	11.619,10.791 11.995,10.883 12.463,11.166 12.836,11.494 13.165,11.82 13.541,11.914 13.868,11.867 14.196,11.633 14.524,11.445 
	14.853,11.494 15.275,11.633 15.648,11.82 16.024,12.057 16.401,12.289 16.822,12.572 17.198,12.758 17.571,12.807 17.898,12.807 
	18.274,12.664 18.651,12.523 19.024,12.289 19.446,12.008 19.777,11.633 20.104,11.258 20.056,10.883 19.728,10.51 19.4,10.322 
	18.979,10.275 18.603,10.182 18.228,10.088 17.898,9.992 17.525,9.854 17.149,9.619 16.822,9.291 16.634,8.963 16.445,8.635 
	16.401,8.307 16.493,7.885 16.588,7.51 16.822,7.133 17.009,6.76 17.198,6.477 17.336,6.242 17.477,6.01 17.712,5.633 18.039,5.541 
	18.462,5.541 18.838,5.682 19.446,6.01 19.777,6.148 20.104,6.338 20.572,6.523 20.945,6.713 21.273,6.76 21.648,6.807 22.072,6.9 
	22.493,6.854 22.82,6.666 23.01,6.242 "/>
<polyline points="23.01,6.242 22.868,5.914 22.773,5.588 22.917,5.26 23.104,4.932 23.523,4.883 23.9,4.883 24.324,4.932 
	24.742,4.979 25.119,4.932 25.447,4.838 25.822,4.789 26.242,4.883 26.619,5.072 26.995,5.072 27.32,4.979 27.646,4.789 
	28.025,4.463 28.352,4.041 28.729,3.711 28.916,3.336 29.242,3.197 29.619,3.057 29.898,2.961 30.32,2.82 30.652,2.635 
	30.979,2.447 31.258,2.494 31.493,2.869 31.635,3.289 31.822,3.664 32.057,4.088 32.244,4.416 32.619,4.789 32.9,4.932 "/>
<polyline points="6.51,12.807 6.133,13.744 6.133,13.883 6.087,14.119 6.042,14.4 5.993,14.541 5.947,14.68 5.854,14.869 
	5.759,15.008 5.62,15.195 5.524,15.385 5.432,15.479 5.337,15.713 5.244,15.9 5.151,16.135 5.103,16.369 5.103,16.648 5.103,16.791 
	5.195,16.977 5.291,17.213 5.337,17.447 5.244,17.635 5.103,17.822 5.008,18.008 4.916,18.104 4.774,18.338 4.729,18.477 
	4.634,18.666 4.588,18.809 4.494,18.945 4.445,19.135 4.353,19.32 4.26,19.461 4.211,19.65 4.166,19.791 4.119,19.977 4.119,20.119 
	4.26,20.305 4.306,20.398 4.401,20.494 4.54,20.635 4.821,20.635 5.008,20.635 5.151,20.586 5.291,20.586 5.479,20.586 
	5.665,20.586 6.042,20.682 6.367,20.682 6.65,20.727 6.79,20.773 6.931,20.82 7.073,20.867 7.259,20.914 7.446,21.057 7.586,21.104 
	7.776,21.289 7.915,21.477 7.963,21.617 8.055,21.758 8.149,21.9 8.244,22.086 8.385,22.273 8.479,22.416 8.571,22.557 8.76,22.742 
	8.899,22.883 9.088,23.025 9.229,23.26 9.322,23.4 9.368,23.539 9.416,23.727 9.461,23.914 9.508,24.195 9.557,24.432 9.604,24.572 
	9.604,24.758 9.604,24.854 9.604,25.039 9.604,25.18 9.697,25.414 9.744,25.555 9.932,25.602 10.072,25.697 10.258,25.791 
	10.4,25.883 10.54,25.932 10.727,25.977 11.104,26.021 11.245,26.021 11.385,26.021 11.524,26.021 11.808,26.021 12.042,26.07 
	12.23,26.07 12.322,26.07 12.557,26.117 12.884,26.166 13.213,26.166 13.541,26.117 13.683,26.166 13.822,26.211 14.01,26.307 
	14.196,26.398 14.337,26.492 14.478,26.588 14.665,26.682 14.805,26.773 14.946,26.822 15.181,26.961 15.275,27.008 15.51,27.15 
	15.79,27.336 15.931,27.43 16.024,27.523 16.118,27.617 16.258,27.852 16.353,27.992 16.493,28.133 16.634,28.369 16.729,28.461 
	16.775,28.604 16.963,28.883 17.009,29.023 17.103,29.166 17.149,29.307 17.198,29.445 17.292,29.635 17.382,29.818 17.477,29.961 
	17.477,30.104 17.525,30.291 17.571,30.479 17.571,30.664 17.571,30.805 17.571,30.994 17.571,31.18 17.571,31.461 17.525,31.789 
	17.477,31.979 17.477,32.258 17.431,32.445 17.431,32.586 17.382,32.773 17.382,32.916 17.336,33.1 17.336,33.289 17.336,33.477 
	17.292,33.711 17.292,33.898 17.292,34.088 17.292,34.229 17.382,34.414 17.431,34.51 17.525,34.791 17.571,34.885 17.619,35.07 
	17.76,35.258 17.854,35.4 17.993,35.539 18.087,35.633 18.228,35.729 18.462,35.729 18.603,35.773 18.745,35.82 18.979,35.963 
	19.165,36.055 19.258,36.15 19.446,36.195 19.587,36.289 19.684,36.383 19.87,36.43 20.056,36.523 20.289,36.523 20.384,36.57 
	20.525,36.617 20.712,36.617 20.9,36.664 21.229,36.76 21.369,36.807 21.509,36.852 21.742,36.896 21.885,36.945 22.072,36.945 
	22.307,36.992 22.541,37.039 22.682,37.086 22.82,37.135 23.01,37.135 23.195,37.182 23.384,37.182 23.572,37.182 23.807,37.182 
	23.994,37.229 24.135,37.229 24.368,37.273 24.557,37.32 24.79,37.367 25.025,37.367 25.166,37.367 25.354,37.367 25.494,37.367 
	25.634,37.414 25.773,37.414 25.962,37.459 26.385,37.459 "/>
<line fill="none" x1="6.343" y1="12.846" x2="6.51" y2="12.807"/>
</svg>
