<?xml version="1.0" encoding="utf-8"?>
<!-- Generator: Adobe Illustrator 15.0.0, SVG Export Plug-In . SVG Version: 6.00 Build 0)  -->
<!DOCTYPE svg PUBLIC "-//W3C//DTD SVG 1.1//EN" "http://www.w3.org/Graphics/SVG/1.1/DTD/svg11.dtd">
<svg version="1.1" id="Layer_1" xmlns="http://www.w3.org/2000/svg" xmlns:xlink="http://www.w3.org/1999/xlink" x="0px" y="0px"
	 width="40px" height="40px" viewBox="0 0 40 40" enable-background="new 0 0 40 40" xml:space="preserve">
<g>
	<circle cx="64.844" cy="64.644" r="12.263"/>
	<g>
		<circle id="circle" fill="#020202" cx="20.263" cy="19.548" r="16.972"/>
		<g>
			<g>
				<path fill="#FFFFFF" stroke="#FFFFFF" stroke-width="0.25" d="M20.167,2.791c-9.266,0-16.804,7.536-16.804,16.804
					c0,9.262,7.538,16.799,16.804,16.799c9.265,0,16.804-7.537,16.804-16.799C36.972,10.327,29.433,2.791,20.167,2.791
					 M20.167,36.789c-4.594,0-8.912-1.787-12.156-5.038c-3.252-3.247-5.04-7.565-5.04-12.156c0-4.594,1.788-8.914,5.04-12.16
					c3.244-3.25,7.562-5.038,12.156-5.038c4.592,0,8.909,1.789,12.158,5.038c3.245,3.246,5.036,7.565,5.036,12.16
					c0,4.591-1.791,8.909-5.036,12.156C29.076,35.002,24.76,36.789,20.167,36.789"/>
			</g>
			<g>
				<path fill="#FFFFFF" stroke="#FFFFFF" stroke-width="0.25" d="M11.674,22.871c-0.537,0-1.069-0.027-1.582-0.08
					c-3.26-0.327-5.565-1.671-6.492-3.78c-0.167-0.381-0.287-0.783-0.36-1.199l0.388-0.062c0.065,0.38,0.177,0.752,0.33,1.102
					c1.048,2.379,3.983,3.625,7.694,3.625c2.706,0,5.823-0.66,8.921-2.025c7.35-3.232,11.86-9.212,10.051-13.325
					c-0.329-0.744-0.85-1.394-1.55-1.926l0.239-0.314c0.753,0.576,1.312,1.279,1.667,2.084c0.927,2.108,0.358,4.716-1.604,7.341
					c-1.937,2.591-5.005,4.902-8.644,6.5C17.671,22.157,14.517,22.871,11.674,22.871"/>
			</g>
			<g>
				<path fill="#FFFFFF" stroke="#FFFFFF" stroke-width="0.25" d="M17.279,35.876c-2.771,0-5.117-0.692-6.613-1.951l0.25-0.298
					c3.012,2.532,9.292,2.466,15.274-0.166c2.869-1.26,5.382-2.968,7.267-4.938c1.81-1.89,2.927-3.94,3.142-5.771l0.387,0.047
					c-0.471,4.004-4.747,8.43-10.636,11.022c-3.038,1.336-6.158,2.047-9.019,2.055C17.312,35.876,17.295,35.876,17.279,35.876"/>
			</g>
			<g>
				<path fill="#FFFFFF" stroke="#FFFFFF" stroke-width="0.25" d="M18.808,2.966c-1.631,0-3.407,0.403-5.144,1.168
					c-4.227,1.86-6.828,5.285-5.795,7.635c0.574,1.305,2.178,2.053,4.398,2.053c1.63,0,3.41-0.405,5.143-1.167
					c4.229-1.858,6.83-5.284,5.796-7.633C22.632,3.714,21.029,2.966,18.808,2.966 M12.268,14.215c-2.385,0-4.115-0.836-4.758-2.29
					C6.96,10.672,7.293,9.127,8.452,7.58c1.13-1.519,2.926-2.872,5.054-3.805c1.787-0.786,3.619-1.201,5.303-1.201
					c2.383,0,4.119,0.834,4.758,2.29c0.552,1.252,0.216,2.796-0.941,4.347c-1.133,1.517-2.929,2.867-5.057,3.804
					C15.784,13.801,13.953,14.215,12.268,14.215"/>
			</g>
			<g>
				<path fill="#FFFFFF" stroke="#FFFFFF" stroke-width="0.25" d="M13.72,30.9c-0.622,0-1.23-0.031-1.816-0.089
					c-3.737-0.377-6.379-1.915-7.442-4.33l0.36-0.156c0.999,2.278,3.531,3.734,7.119,4.095c3.631,0.367,7.898-0.431,12.015-2.239
					c4.121-1.812,7.593-4.418,9.773-7.34c2.158-2.895,2.8-5.739,1.798-8.021l0.359-0.156c1.059,2.414,0.405,5.401-1.839,8.41
					c-2.226,2.976-5.752,5.628-9.931,7.464C20.604,30.083,16.978,30.9,13.72,30.9"/>
			</g>
			<g>
				<path fill="#FFFFFF" stroke="#FFFFFF" stroke-width="0.25" d="M24.307,36.239c-1.227,0-2.646-2.298-3.642-4.304
					c-1.471-2.94-2.924-6.977-4.098-11.371c-1.174-4.394-1.924-8.617-2.117-11.899c-0.141-2.383-0.037-5.299,1.242-5.641l0.1,0.379
					c-0.775,0.205-1.128,2.165-0.949,5.237c0.191,3.255,0.937,7.456,2.105,11.823c1.166,4.37,2.607,8.379,4.065,11.296
					c1.377,2.754,2.66,4.274,3.436,4.068l0.102,0.378C24.471,36.229,24.391,36.239,24.307,36.239"/>
			</g>
			<g>
				<path fill="#FFFFFF" stroke="#FFFFFF" stroke-width="0.25" d="M29.271,34.242l-0.205-0.333c0.738-0.453,0.571-2.467-0.44-5.382
					c-1.073-3.088-2.969-6.911-5.331-10.762C18.04,9.208,12.958,4.419,11.502,5.31l-0.205-0.333c1.2-0.735,3.43,1.166,5.091,2.889
					c2.288,2.376,4.857,5.816,7.237,9.693c2.378,3.876,4.287,7.725,5.372,10.837C29.78,30.657,30.468,33.505,29.271,34.242"/>
			</g>
			<g>
				<path fill="#FFFFFF" stroke="#FFFFFF" stroke-width="0.25" d="M33.614,30.201l-0.312-0.238c1.596-2.067,1.731-5.074,0.384-8.466
					c-1.365-3.431-4.077-6.837-7.638-9.588C18.727,6.25,10.07,5.144,6.747,9.44l-0.31-0.239c1.686-2.18,4.688-3.123,8.457-2.657
					c3.733,0.465,7.78,2.261,11.396,5.053c3.615,2.794,6.37,6.258,7.761,9.751C35.452,24.879,35.299,28.024,33.614,30.201"/>
			</g>
			<g>
				<path fill="#FFFFFF" stroke="#FFFFFF" stroke-width="0.25" d="M37.474,20.387l-0.393-0.025c0.213-3.52-1.325-6.939-4.329-9.624
					c-3.016-2.698-7.147-4.328-11.629-4.6c-4.48-0.267-8.776,0.86-12.092,3.178c-3.303,2.309-5.238,5.519-5.447,9.041l-0.396-0.021
					c0.22-3.647,2.216-6.962,5.617-9.341c3.39-2.369,7.775-3.521,12.342-3.248c4.571,0.273,8.786,1.941,11.866,4.697
					C36.108,13.21,37.692,16.741,37.474,20.387"/>
			</g>
			<g>
				<path fill="#FFFFFF" stroke="#FFFFFF" stroke-width="0.25" d="M7.729,31.286C5.182,28.742,4.057,25.084,4.56,20.99
					c0.5-4.083,2.557-8.113,5.791-11.356c3.235-3.236,7.262-5.3,11.341-5.807c4.099-0.51,7.756,0.612,10.305,3.152l-0.277,0.279
					c-5.09-5.085-14.555-3.893-21.091,2.654C4.09,16.462,2.914,25.924,8.012,31.009L7.729,31.286z"/>
			</g>
			<g>
				<path fill="#FFFFFF" stroke="#FFFFFF" stroke-width="0.25" d="M18.141,36.632c-2.735-0.335-5.075-2.436-6.594-5.918
					c-1.502-3.445-2.025-7.841-1.465-12.375c0.559-4.533,2.131-8.674,4.425-11.651c2.318-3.008,5.096-4.478,7.831-4.144
					l-0.047,0.393c-5.387-0.663-10.688,6.267-11.818,15.449c-0.552,4.469-0.042,8.789,1.435,12.168
					c1.459,3.353,3.691,5.369,6.281,5.69L18.141,36.632z"/>
			</g>
		</g>
	</g>
	<polygon fill-rule="evenodd" clip-rule="evenodd" fill="#020202" points="51.66,26.257 51.36,26.257 51.056,26.257 49.853,26.257 
		49.552,26.257 49.254,26.257 48.95,26.257 48.349,26.257 48.048,26.257 47.747,26.257 47.747,25.957 47.445,26.257 46.845,26.257 
		46.544,26.257 46.24,26.257 45.942,25.957 45.639,25.957 45.338,26.257 45.037,26.558 44.737,26.558 44.438,26.257 44.438,25.957 
		44.737,25.957 45.037,25.957 45.037,25.055 45.037,24.754 45.037,24.45 45.338,24.45 45.338,24.149 45.639,24.149 45.639,23.851 
		45.942,23.851 46.24,23.851 46.24,23.548 46.24,23.851 46.845,24.149 47.146,24.149 47.146,23.851 47.445,23.548 47.747,23.548 
		48.349,23.247 48.649,23.247 48.649,23.548 48.649,23.851 48.649,24.149 48.95,24.149 48.95,24.45 49.254,24.45 49.552,24.149 
		49.552,23.851 49.853,23.548 50.153,23.548 50.153,23.247 50.457,23.247 50.758,22.947 50.758,22.646 51.056,22.646 51.36,22.646 
		51.36,22.345 51.66,22.044 51.66,21.742 51.961,21.742 51.961,21.441 51.961,21.14 51.961,20.84 51.961,20.539 51.961,20.238 
		51.961,19.938 51.961,19.636 51.961,19.334 51.961,19.036 52.262,19.036 52.262,18.732 52.562,18.732 52.562,18.434 52.866,18.434 
		52.866,18.131 52.866,17.831 53.164,17.831 53.164,17.528 53.465,17.228 53.768,16.927 54.069,16.927 54.369,16.927 54.672,16.625 
		54.672,16.326 54.971,16.025 54.971,15.725 54.971,15.424 54.971,15.123 54.971,14.82 54.971,14.521 55.271,14.521 55.271,14.218 
		55.271,13.918 55.271,13.617 55.271,13.316 55.271,13.016 55.271,12.715 55.571,12.11 55.571,11.81 55.571,11.511 55.571,11.209 
		55.571,10.911 55.571,10.609 55.874,10.609 55.874,10.306 56.174,10.005 56.174,9.702 56.174,9.401 56.476,9.104 56.476,8.802 
		56.476,8.501 56.476,8.199 56.476,7.898 56.476,7.598 56.779,7.598 56.779,7.297 56.476,7.297 56.476,6.994 56.476,6.692 
		56.779,6.692 57.079,6.692 57.079,6.394 57.079,6.093 57.381,6.093 57.381,5.793 57.679,5.793 57.679,5.491 57.979,5.189 
		58.282,5.189 58.584,5.189 58.882,5.491 59.183,5.491 59.485,5.793 59.787,6.093 60.087,6.394 60.391,6.692 60.69,6.692 
		60.99,6.692 61.29,6.692 61.29,6.994 61.592,6.994 62.195,6.994 62.493,6.994 62.797,6.994 63.098,6.994 63.399,6.994 
		63.399,7.297 63.699,7.297 63.999,6.994 63.999,6.692 64.301,6.394 64.301,6.692 64.301,6.394 64.301,6.093 64.602,6.093 
		64.602,5.793 64.904,5.793 64.904,6.093 65.203,6.093 65.504,6.394 65.805,6.394 65.805,6.093 66.105,6.093 66.406,5.793 
		67.008,5.793 67.312,5.793 67.61,5.491 67.312,5.491 67.61,5.491 67.913,5.491 68.214,5.793 68.515,5.491 68.813,5.491 
		69.116,5.491 69.417,5.491 69.417,5.189 69.116,5.189 69.417,5.189 69.417,4.888 69.72,4.888 70.019,4.888 70.321,5.189 
		70.622,5.189 70.921,5.189 71.224,5.189 71.521,5.491 71.825,5.491 72.125,5.491 72.427,5.189 72.73,5.189 73.028,5.189 
		73.33,5.491 73.33,5.793 73.632,5.793 73.932,6.093 73.932,6.394 74.231,6.394 74.535,6.394 74.535,6.692 74.838,6.692 
		75.137,6.994 75.137,6.692 75.437,6.692 75.738,6.692 75.738,6.394 76.038,6.692 76.342,6.692 76.342,6.394 76.342,6.692 
		76.64,6.692 76.941,6.692 76.941,6.394 77.245,6.394 77.245,6.093 77.545,6.093 77.545,6.394 77.845,6.394 77.845,6.692 
		78.145,6.994 78.145,7.297 78.448,7.297 78.448,7.598 78.746,7.598 79.048,7.598 79.35,7.898 79.35,8.199 79.048,8.199 
		79.35,8.199 79.652,8.199 79.652,8.501 79.951,8.501 79.951,8.802 79.652,8.802 79.652,9.104 79.652,9.401 79.652,9.702 
		79.652,10.005 79.652,10.306 79.951,10.609 80.253,10.609 80.553,10.911 80.553,11.209 79.951,11.81 79.652,12.11 79.35,12.11 
		79.048,12.413 79.048,12.715 78.746,12.715 78.448,13.016 78.448,13.316 78.145,13.316 78.145,13.617 78.145,13.918 78.145,14.218 
		77.845,14.218 77.845,14.521 77.845,14.82 77.545,14.82 77.545,15.123 77.545,15.424 77.545,15.725 77.545,16.025 77.545,16.326 
		77.545,16.625 77.245,16.625 77.245,17.228 77.245,17.528 77.245,17.831 76.941,17.831 76.64,18.131 76.64,18.434 76.342,18.434 
		76.342,18.732 76.64,18.732 76.64,19.036 76.342,19.334 76.038,19.636 76.038,19.938 76.038,20.238 76.342,20.238 76.64,20.84 
		76.64,21.14 76.64,21.441 76.64,21.742 76.64,22.044 76.64,22.345 76.64,22.646 76.941,22.646 76.941,22.947 76.941,23.247 
		76.941,23.548 76.941,23.851 76.941,24.149 76.941,24.45 76.941,24.754 77.245,24.754 77.245,25.055 77.245,25.355 77.245,25.656 
		77.545,25.656 77.545,25.957 77.245,25.957 77.245,26.257 77.245,26.558 77.245,26.859 77.245,27.159 77.545,27.159 77.545,27.461 
		77.545,27.763 77.845,27.763 78.145,27.763 78.145,28.064 78.448,28.064 78.448,28.365 78.746,28.666 78.746,28.967 79.048,28.967 
		79.048,29.267 79.048,29.567 79.35,29.868 79.35,30.169 79.652,30.471 79.048,30.771 78.746,30.771 78.145,30.771 77.845,30.771 
		77.245,30.771 76.941,31.072 76.64,31.072 76.342,31.072 76.038,31.072 76.038,31.374 76.038,31.676 75.738,31.976 75.437,32.277 
		75.137,32.577 75.437,32.878 75.738,33.479 75.738,33.782 75.437,33.782 75.437,34.082 75.437,34.385 75.437,34.985 75.738,34.985 
		75.738,35.286 75.437,35.286 75.437,35.587 75.437,35.89 75.137,36.19 75.137,36.488 75.137,36.789 75.137,37.092 75.137,37.395 
		75.437,37.395 75.437,37.694 75.738,37.694 76.038,37.994 76.342,38.296 76.342,38.598 76.64,38.598 76.941,38.598 77.245,38.598 
		76.941,38.296 77.245,38.296 77.245,37.994 77.845,37.994 77.845,38.296 77.845,38.598 77.845,38.896 77.845,39.198 77.845,40.101 
		77.845,40.401 77.545,40.401 77.545,40.101 77.245,40.101 76.941,40.401 76.64,40.401 76.342,40.401 76.038,40.401 76.038,40.101 
		76.038,39.8 75.738,39.498 75.437,39.498 75.137,39.198 75.437,39.198 75.437,38.896 75.137,38.896 75.137,38.598 74.838,38.598 
		74.535,38.598 74.231,38.296 73.932,38.296 73.632,38.296 73.33,37.994 73.33,37.694 73.028,37.395 73.028,37.092 72.73,37.092 
		72.427,37.092 72.427,37.395 72.427,37.694 72.125,37.694 71.825,37.694 71.521,37.694 70.921,37.694 70.622,37.694 70.321,37.395 
		70.019,37.395 69.72,37.092 69.417,37.092 69.417,36.789 69.116,36.789 69.116,36.488 69.417,36.488 69.417,36.19 69.116,36.19 
		69.116,36.488 68.813,36.488 68.515,36.488 68.214,36.488 67.913,36.488 67.913,36.789 67.61,36.789 67.61,36.488 67.61,36.19 
		67.61,35.89 67.312,35.89 67.008,35.89 67.008,35.587 66.707,35.587 66.707,35.89 66.406,35.89 66.105,35.89 65.805,35.89 
		65.504,35.89 65.203,35.89 64.904,36.19 64.602,35.89 64.301,36.19 64.301,35.89 63.999,35.89 63.999,36.19 63.399,36.19 
		63.399,35.89 63.399,35.587 63.699,35.286 63.699,34.985 63.399,34.985 63.699,34.685 63.399,34.385 63.399,34.082 63.399,33.782 
		63.098,33.782 62.797,33.479 62.797,33.179 62.493,32.878 62.797,32.577 62.797,32.277 62.797,31.976 62.797,31.676 62.797,31.374 
		62.797,31.072 62.797,30.771 62.797,30.471 62.493,30.169 62.493,29.868 62.493,29.567 62.797,29.567 62.797,29.267 62.797,28.967 
		62.493,28.967 62.195,28.967 61.592,28.967 60.087,28.967 60.087,28.666 60.087,28.365 60.391,28.365 60.391,28.064 59.787,28.064 
		59.787,28.365 59.183,28.365 58.282,28.365 58.282,28.666 58.282,28.967 58.282,29.267 57.979,29.267 57.979,29.567 57.979,29.868 
		57.979,30.169 57.381,30.169 56.779,30.169 56.476,30.169 56.174,30.169 55.874,30.169 55.571,30.169 55.571,30.471 55.271,30.471 
		55.271,30.169 54.971,30.169 54.672,30.471 54.369,30.169 54.369,29.868 54.069,29.868 54.069,29.567 53.768,29.267 53.768,28.967 
		53.465,28.967 53.465,28.666 53.465,28.365 53.465,28.064 53.164,28.064 53.164,27.763 52.866,27.159 52.866,26.859 52.866,26.558 
		52.866,26.257 52.562,26.257 52.262,26.257 51.961,26.257 	"/>
	<polyline points="118.528,4.675 118.751,4.675 118.862,4.786 118.976,4.786 119.087,4.899 119.198,5.009 119.312,5.009 
		119.422,5.009 119.422,5.121 119.312,5.121 119.312,5.236 119.198,5.236 119.198,5.346 119.198,5.458 119.198,5.569 119.087,5.569 
		119.198,5.569 119.087,5.569 119.087,5.681 119.087,5.793 119.087,5.905 119.087,6.017 119.198,6.017 119.198,6.129 119.198,6.239 
		119.198,6.353 119.198,6.466 119.198,6.353 119.198,6.466 119.087,6.466 119.198,6.466 119.087,6.466 119.198,6.466 119.087,6.466 
		119.087,6.577 119.198,6.577 119.198,6.689 119.087,6.689 119.198,6.689 119.198,6.802 119.087,6.802 119.087,6.914 119.087,7.026 
		119.087,7.137 118.976,7.137 118.976,7.249 118.976,7.359 118.976,7.474 118.976,7.583 119.087,7.583 119.087,7.696 119.087,7.809 
		119.198,7.809 119.198,7.919 119.198,8.031 119.198,8.143 119.087,8.143 119.198,8.143 119.198,8.255 119.198,8.367 119.198,8.255 
		119.198,8.367 119.312,8.367 119.312,8.479 119.198,8.591 119.198,8.479 119.198,8.591 119.312,8.703 119.198,8.703 119.198,8.814 
		119.312,8.814 119.198,8.814 119.198,8.927 119.087,9.039 118.976,9.151 118.976,9.262 118.862,9.262 118.862,9.375 118.751,9.375 
		118.751,9.484 118.64,9.599 118.64,9.71 118.528,9.71 118.528,9.822 118.417,9.935 118.306,10.045 118.192,10.157 117.97,10.38 
		117.97,10.604 117.97,10.716 117.97,10.828 117.857,10.938 117.857,11.05 117.857,11.164 117.857,11.275 117.745,11.5 
		117.745,11.613 117.631,11.834 117.631,11.946 117.631,12.058 117.631,12.171 117.631,12.283 117.521,12.394 117.521,12.507 
		117.521,12.618 117.521,12.729 117.521,12.841 117.409,12.841 117.409,12.954 117.299,12.954 117.188,12.954 117.074,12.954 
		116.962,12.954 116.85,12.954 116.85,13.066 116.739,13.178 116.625,13.29 116.625,13.401 116.515,13.401 116.402,13.401 
		116.402,13.514 116.515,13.514 116.402,13.514 116.402,13.625 116.402,13.514 116.402,13.625 116.402,13.738 116.402,13.85 
		116.402,13.962 116.29,13.962 116.178,13.962 116.178,14.074 116.29,14.074 116.29,14.184 116.178,14.184 116.29,14.184 
		116.178,14.184 116.178,14.296 116.178,14.41 116.178,14.521 116.29,14.521 116.178,14.521 116.178,14.631 116.29,14.631 
		116.29,14.744 116.29,14.856 116.29,14.967 116.29,14.856 116.29,14.967 116.402,14.967 116.402,15.079 116.402,15.191 
		116.402,15.079 116.402,15.191 116.515,15.191 116.515,15.303 116.402,15.303 116.402,15.415 116.29,15.415 116.402,15.415 
		116.402,15.527 116.29,15.527 116.402,15.527 116.29,15.527 116.29,15.639 116.29,15.751 116.29,15.863 116.402,15.863 
		116.402,15.975 116.178,16.982 116.067,17.205 116.067,17.318 116.067,17.43 115.956,17.765 115.843,18.437 115.843,18.66 
		115.731,18.885 115.621,19.667 115.621,19.779 115.509,19.779 115.509,19.891 115.509,20.002 115.509,20.113 115.395,20.226 
		115.395,20.338 115.509,20.338 115.509,20.45 115.621,20.45 115.621,20.562 115.731,20.562 115.621,20.562 115.731,20.562 
		115.731,20.673 115.621,20.673 115.621,20.786 115.621,20.896 115.731,20.896 115.731,21.01 115.621,21.01 115.621,21.123 
		115.731,21.123 115.621,21.123 115.731,21.123 115.731,21.232 115.621,21.232 115.621,21.346 115.621,21.456 115.621,21.346 
		115.731,21.346 115.731,21.456 115.843,21.456 115.731,21.456 115.843,21.456 115.731,21.456 115.731,21.569 115.843,21.569 
		115.731,21.569 115.731,21.683 115.621,21.683 115.731,21.683 115.621,21.683 115.621,21.793 115.731,21.793 115.621,21.793 
		115.509,21.793 115.621,21.905 115.509,21.905 115.509,21.793 115.509,21.905 115.509,21.793 115.509,21.905 115.509,21.793 
		115.509,21.905 115.395,21.905 115.395,21.793 115.395,21.905 115.395,22.016 115.509,22.016 115.509,22.127 115.509,22.239 
		115.621,22.239 115.509,22.239 115.509,22.352 115.395,22.352 115.395,22.463 115.395,22.576 115.395,22.687 115.284,22.687 
		115.284,22.799 115.284,22.912 115.17,22.912 115.284,22.912 115.284,23.022 115.17,23.022 115.17,23.134 115.17,23.247 
		115.17,23.359 115.17,23.247 115.17,23.359 115.17,23.471 115.17,23.584 115.17,23.694 115.17,23.805 115.17,23.917 115.17,24.029 
		115.17,24.14 115.17,24.253 115.17,24.366 115.17,24.253 115.17,24.366 115.284,24.366 115.284,24.477 115.284,24.589 
		115.284,24.701 115.284,24.589 115.284,24.701 115.17,24.701 115.17,24.812 115.17,24.924 115.17,25.037 115.17,25.149 
		115.17,25.259 115.17,25.373 115.284,25.373 115.17,25.373 115.059,25.373 114.947,25.373 114.835,25.373 114.725,25.373 
		114.611,25.373 114.611,25.484 114.611,25.597 114.611,25.708 114.725,25.708 114.725,25.822 114.725,25.932 114.725,26.045 
		114.725,26.155 114.725,26.267 114.835,26.267 114.835,26.38 114.725,26.38 114.611,26.38 114.725,26.38 114.725,26.493 
		114.611,26.604 114.611,26.714 114.611,26.826 114.611,26.94 114.611,27.05 114.725,27.05 114.725,27.163 114.725,27.274 
		114.725,27.386 114.725,27.498 114.611,27.498 114.611,27.61 114.611,27.723 114.611,27.834 114.611,27.945 114.611,28.058 
		114.5,28.058 114.611,28.058 114.5,28.058 114.5,28.17 114.611,28.17 114.611,28.282 114.611,28.395 114.611,28.506 
		114.611,28.617 114.611,28.729 114.5,28.729 114.5,28.839 114.611,28.839 114.611,28.951 114.725,28.951 114.725,29.064 
		114.835,29.064 114.835,29.176 114.947,29.176 114.835,29.176 114.835,29.287 114.947,29.287 114.835,29.287 114.835,29.399 
		114.947,29.399 114.835,29.399 114.835,29.512 114.725,29.512 114.725,29.624 114.725,29.735 114.725,29.849 114.725,29.96 
		114.835,29.96 114.835,30.072 114.835,30.184 114.947,30.296 114.835,30.408 114.835,30.52 114.835,30.632 114.835,30.743 
		114.725,30.855 114.725,30.967 114.725,31.08 114.725,31.189 114.835,31.189 114.725,31.189 114.611,31.189 114.5,31.189 
		114.388,31.189 114.279,31.302 113.94,31.524 113.94,31.64 113.829,31.751 113.606,31.862 113.493,31.973 113.493,32.085 
		113.382,32.085 113.158,32.421 112.599,32.421 112.262,32.533 112.149,32.533 112.04,32.644 111.928,32.979 111.705,33.204 
		111.48,33.539 111.367,33.65 111.255,33.762 111.144,33.876 111.033,33.986 110.922,34.099 110.807,34.322 110.695,34.435 
		110.695,34.658 110.586,34.658 110.361,34.547 110.248,34.435 109.913,34.211 109.688,34.099 109.466,33.986 109.13,33.876 
		108.906,33.762 108.682,33.539 108.571,33.428 108.459,33.428 108.347,33.316 108.123,33.316 108.012,33.428 108.012,33.65 
		107.9,33.986 107.9,34.211 107.788,34.211 107.788,34.435 107.677,34.77 107.563,34.883 107.563,34.995 107.341,35.107 
		107.114,34.995 107.005,34.995 106.78,34.883 106.67,34.77 106.556,34.77 106.334,34.547 106.106,34.77 105.996,34.883 
		105.887,34.995 105.773,35.107 105.55,35.219 105.326,35.442 105.214,35.553 104.993,35.665 104.766,35.777 104.543,35.777 
		104.207,35.665 103.983,35.665 103.76,35.777 103.76,35.888 103.647,36 103.647,36.339 103.536,36.561 103.424,36.783 
		103.198,37.12 102.977,37.344 102.865,37.344 102.753,37.344 102.418,37.454 102.192,37.344 102.08,37.344 101.855,37.232 
		101.745,37.12 101.633,37.008 101.409,37.008 101.188,36.783 101.188,36.561 101.074,36.449 101.074,36.339 100.962,36 100.85,36 
		100.625,36 100.402,36 100.291,36.111 100.291,36.339 100.178,36.561 100.178,36.783 100.178,37.12 100.178,37.344 100.178,37.567 
		100.178,37.793 100.067,38.016 99.955,38.127 99.846,38.238 99.621,38.351 99.284,38.351 99.062,38.351 98.837,38.351 
		98.501,38.462 98.278,38.351 98.055,38.351 97.941,38.351 97.718,38.462 97.605,38.686 97.495,38.796 97.383,38.909 97.271,38.909 
		97.046,39.021 96.824,38.909 96.489,38.909 96.151,38.909 95.928,38.909 95.704,38.796 95.48,38.686 95.48,38.574 95.367,38.351 
		95.144,38.238 95.144,38.127 94.92,38.016 94.809,37.903 94.696,37.793 94.362,37.793 94.249,37.903 94.139,37.903 93.803,38.127 
		93.578,38.238 93.467,38.351 93.355,38.351 93.245,38.351 93.245,38.127 93.131,37.903 93.131,37.681 93.02,37.567 93.02,37.344 
		93.02,37.12 93.02,36.896 93.02,36.561 93.02,36.339 93.02,36.111 92.796,35.888 92.572,35.888 92.349,35.777 92.236,35.553 
		92.011,35.33 91.789,34.995 91.563,34.77 91.34,34.658 91.115,34.547 91.004,34.435 90.893,34.211 90.78,34.211 90.561,33.986 
		90.561,33.876 90.445,33.762 90.336,33.428 90.222,33.316 90.222,33.204 89.999,32.869 89.774,32.644 89.774,32.533 89.551,32.421 
		89.439,32.309 89.215,32.196 89.215,32.085 88.991,31.862 88.655,31.64 88.544,31.414 88.43,31.302 88.319,31.189 88.209,30.967 
		88.097,30.855 87.985,30.743 87.874,30.632 87.649,30.408 87.426,30.072 87.312,29.849 87.201,29.624 87.089,29.624 86.865,29.287 
		86.865,29.064 86.865,28.951 86.977,28.839 87.089,28.729 87.426,28.617 87.426,28.506 87.538,28.506 87.649,28.506 87.874,28.617 
		88.209,28.617 88.319,28.506 88.209,28.282 88.097,28.058 87.874,27.723 87.874,27.498 87.765,27.274 87.765,26.94 87.649,26.826 
		87.649,26.714 87.874,26.493 87.874,26.38 88.209,26.267 88.43,26.267 88.655,26.267 88.879,26.155 88.991,26.155 89.215,26.045 
		89.439,25.932 89.662,25.822 89.999,25.822 90.222,25.822 90.445,25.822 90.78,25.822 91.004,25.822 91.23,25.822 91.563,25.932 
		91.674,25.932 91.789,25.932 92.011,26.045 92.236,26.045 92.458,25.932 92.572,25.822 92.684,25.708 92.796,25.484 92.907,25.484 
		93.131,25.149 93.245,24.924 93.245,24.701 93.355,24.366 93.467,24.14 93.578,23.917 93.578,23.694 93.69,23.584 93.69,23.359 
		93.803,23.134 93.915,22.912 93.915,22.799 93.915,22.576 93.915,22.463 93.578,22.352 93.245,21.456 93.355,21.346 93.578,21.232 
		93.69,21.123 93.803,21.01 94.025,20.896 94.139,20.786 94.249,20.673 94.362,20.562 94.474,20.338 94.696,20.226 94.696,20.113 
		94.809,19.891 94.92,19.779 94.92,19.667 95.033,19.557 95.033,19.33 95.144,19.218 95.259,19.107 95.367,18.885 95.48,18.773 
		95.592,18.66 95.818,18.549 95.928,18.549 96.04,18.549 96.265,18.437 96.374,18.437 96.489,18.325 96.711,18.325 96.824,18.212 
		96.937,18.101 97.158,17.988 97.271,17.877 97.271,17.765 97.383,17.542 97.383,17.43 97.495,17.318 97.495,17.205 97.495,17.092 
		97.605,16.868 97.605,16.757 97.495,16.646 97.495,16.534 97.383,16.424 97.383,16.312 97.383,16.199 97.383,16.086 97.383,15.975 
		97.383,15.863 97.271,15.751 97.271,15.639 97.271,15.527 97.271,15.415 97.271,15.303 97.271,15.191 97.271,15.079 97.271,14.967 
		97.271,14.856 97.158,14.856 97.158,14.744 97.158,14.631 97.158,14.521 97.271,14.521 97.271,14.41 97.271,14.296 97.271,14.184 
		97.271,14.074 97.271,13.962 97.271,13.85 97.383,13.738 97.383,13.625 97.495,13.625 97.495,13.514 97.605,13.514 97.718,13.514 
		97.718,13.401 97.718,13.29 97.718,13.178 97.83,13.178 97.83,13.066 97.718,12.954 97.718,12.841 97.605,12.729 97.495,12.729 
		97.495,12.618 97.605,12.507 97.605,12.394 97.605,12.283 97.495,12.283 97.383,12.283 97.271,12.283 97.158,12.171 97.046,12.058 
		96.937,11.946 96.937,11.834 96.824,11.725 96.824,11.613 96.824,11.5 96.824,11.388 96.711,11.275 96.711,11.164 96.824,11.05 
		96.824,10.938 96.824,10.828 96.824,10.716 96.824,10.604 96.711,10.492 96.601,10.492 96.601,10.38 96.601,10.268 96.601,10.157 
		96.711,10.045 96.711,9.935 96.601,9.935 96.601,9.822 96.489,9.822 96.374,9.822 96.374,9.71 96.374,9.599 96.374,9.484 
		96.265,9.484 96.151,9.484 96.151,9.375 96.04,9.375 95.928,9.375 95.818,9.375 95.704,9.375 95.592,9.375 95.48,9.375 
		95.48,9.262 95.367,9.262 95.259,9.262 95.144,9.151 95.033,9.151 95.033,9.262 94.92,9.262 94.92,9.151 94.809,9.151 
		94.809,9.262 94.696,9.262 94.585,9.262 94.474,9.262 94.362,9.151 94.249,9.151 94.139,9.151 94.139,9.039 94.025,9.039 
		94.025,8.927 93.915,8.927 93.803,8.927 93.803,8.814 93.69,8.814 93.69,8.703 93.578,8.703 93.467,8.703 93.355,8.703 
		93.245,8.591 93.131,8.591 93.02,8.479 93.02,8.367 93.02,8.255 93.131,8.255 93.245,8.143 93.355,8.143 93.467,8.143 
		93.578,8.031 93.69,8.143 93.803,8.143 94.025,8.143 94.139,8.143 94.249,8.031 94.474,8.031 94.585,8.031 94.696,8.031 
		94.92,7.919 95.033,7.919 95.144,7.809 95.367,7.583 95.48,7.474 95.592,7.359 95.704,7.249 95.704,7.137 95.818,7.137 
		95.928,7.026 96.151,7.026 96.265,6.914 96.374,6.914 96.489,6.802 96.711,6.802 96.824,6.689 97.046,6.689 97.158,6.689 
		97.383,6.577 97.495,6.577 97.718,6.577 97.941,6.577 98.164,6.466 98.389,6.466 98.614,6.466 98.726,6.466 98.948,6.466 
		99.062,6.466 99.173,6.353 99.396,6.353 99.508,6.353 99.732,6.353 99.955,6.239 100.067,6.239 100.178,6.239 100.402,6.239 
		100.515,6.353 100.739,6.466 100.85,6.577 100.962,6.689 101.074,6.802 101.188,6.914 101.3,7.137 101.523,7.249 101.633,7.474 
		101.745,7.583 101.855,7.696 102.08,7.809 102.192,7.919 102.418,8.031 102.53,8.031 102.642,8.031 102.865,8.143 102.977,8.031 
		103.087,8.031 103.312,7.919 103.424,7.919 103.536,7.919 103.76,7.809 103.871,7.809 103.983,7.809 104.207,7.696 104.317,7.696 
		104.431,7.696 104.543,7.583 104.766,7.583 104.881,7.583 104.993,7.583 105.214,7.583 105.326,7.583 105.55,7.583 105.662,7.583 
		105.887,7.474 106.106,7.583 106.223,7.583 106.334,7.583 106.556,7.583 106.67,7.583 106.78,7.583 107.005,7.583 107.114,7.696 
		107.341,7.696 107.452,7.696 107.677,7.696 107.788,7.696 108.012,7.809 108.123,7.696 108.347,7.696 108.459,7.696 108.682,7.474 
		108.796,7.359 109.018,7.249 109.13,7.137 109.241,7.026 109.354,7.026 109.577,6.914 109.688,6.914 109.913,6.914 110.024,6.914 
		110.136,6.914 110.248,7.026 110.475,7.026 110.586,7.249 110.695,7.359 110.922,7.359 111.033,7.359 111.144,7.249 111.255,7.249 
		111.367,7.249 111.593,7.249 111.705,7.359 111.928,7.474 112.04,7.583 112.149,7.696 112.374,7.696 112.487,7.696 112.599,7.696 
		112.711,7.696 112.935,7.583 113.046,7.583 113.271,7.359 113.382,7.249 113.493,7.137 113.493,7.026 113.382,6.802 113.158,6.802 
		113.046,6.689 112.822,6.689 112.711,6.689 112.599,6.577 112.487,6.577 112.374,6.466 112.149,6.353 112.149,6.239 112.04,6.129 
		112.04,5.905 112.04,5.793 112.149,5.681 112.149,5.458 112.262,5.346 112.374,5.236 112.374,5.121 112.487,5.009 112.487,4.899 
		112.711,4.899 112.822,4.899 112.935,4.899 113.271,5.009 113.382,5.121 113.493,5.236 113.606,5.236 113.829,5.346 113.94,5.346 
		114.053,5.346 114.279,5.458 114.388,5.346 114.5,5.346 114.611,5.121 114.611,5.009 114.5,4.899 114.611,4.786 114.611,4.562 
		114.835,4.562 114.947,4.562 115.17,4.675 115.284,4.675 115.395,4.675 115.621,4.562 115.731,4.562 115.843,4.562 116.067,4.675 
		116.178,4.675 116.29,4.675 116.515,4.562 116.625,4.451 116.739,4.228 116.85,4.116 116.962,4.003 117.074,3.893 117.188,3.893 
		117.299,3.893 117.521,3.78 117.631,3.668 117.745,3.668 117.857,3.668 117.97,3.78 118.08,4.003 118.08,4.116 118.192,4.34 
		118.306,4.451 118.417,4.562 118.528,4.675 	"/>
	<g>
		<polyline points="35.873,45.663 36.341,45.896 36.668,46.037 37.042,46.178 37.37,46.412 37.7,46.553 37.981,46.693 
			37.981,46.741 38.026,46.741 38.026,46.787 38.074,46.833 38.074,46.88 38.026,46.88 37.981,46.88 37.936,46.833 37.887,46.833 
			37.887,46.88 37.887,46.928 37.84,46.928 37.887,46.928 37.887,46.974 37.84,46.974 37.84,47.021 37.84,47.068 37.84,47.117 
			37.794,47.117 37.747,47.117 37.747,47.162 37.7,47.162 37.7,47.207 37.7,47.255 37.651,47.255 37.651,47.301 37.7,47.301 
			37.651,47.301 37.651,47.349 37.605,47.349 37.605,47.396 37.605,47.443 37.559,47.49 37.559,47.537 37.513,47.537 37.513,47.584 
			37.468,47.584 37.513,47.584 37.513,47.632 37.468,47.678 37.468,47.725 37.513,47.771 37.468,47.816 37.468,47.864 
			37.468,47.911 37.468,47.959 37.468,48.006 37.419,48.006 37.419,48.053 37.37,48.053 37.37,48.1 37.419,48.1 37.468,48.1 
			37.468,48.145 37.419,48.145 37.419,48.193 37.419,48.24 37.37,48.24 37.37,48.193 37.37,48.24 37.326,48.24 37.37,48.287 
			37.419,48.287 37.419,48.332 37.37,48.381 37.326,48.381 37.37,48.427 37.326,48.476 37.37,48.476 37.326,48.476 37.37,48.521 
			37.326,48.521 37.326,48.569 37.277,48.569 37.233,48.569 37.233,48.616 37.233,48.66 37.233,48.707 37.277,48.707 37.326,48.707 
			37.326,48.756 37.277,48.803 37.326,48.803 37.277,48.803 37.326,48.849 37.277,48.849 37.277,48.896 37.277,48.943 
			37.326,48.943 37.326,48.99 37.37,48.943 37.37,48.99 37.326,49.037 37.37,49.037 37.37,49.084 37.326,49.084 37.326,49.131 
			37.326,49.179 37.37,49.179 37.419,49.179 37.419,49.223 37.468,49.272 37.513,49.317 37.513,49.366 37.468,49.412 37.513,49.412 
			37.513,49.459 37.559,49.506 37.559,49.552 37.605,49.506 37.605,49.552 37.651,49.552 37.651,49.601 37.605,49.601 
			37.651,49.646 37.651,49.694 37.605,49.739 37.605,49.787 37.651,49.833 37.605,49.833 37.605,49.88 37.605,49.929 37.559,49.929 
			37.605,49.976 37.559,49.976 37.559,50.022 37.559,50.067 37.605,50.067 37.559,50.067 37.559,50.115 37.513,50.115 
			37.513,50.161 37.513,50.21 37.468,50.161 37.468,50.21 37.419,50.21 37.419,50.254 37.468,50.254 37.468,50.303 37.468,50.35 
			37.419,50.35 37.419,50.397 37.419,50.442 37.468,50.442 37.419,50.442 37.419,50.491 37.37,50.491 37.37,50.535 37.419,50.535 
			37.419,50.584 37.468,50.584 37.468,50.535 37.468,50.584 37.468,50.63 37.513,50.63 37.468,50.677 37.513,50.677 37.513,50.724 
			37.513,50.771 37.513,50.819 37.468,50.819 37.468,50.865 37.419,50.865 37.419,50.913 37.468,50.913 37.468,50.958 
			37.513,50.958 37.513,51.006 37.513,51.054 37.513,51.1 37.513,51.145 37.468,51.145 37.468,51.193 37.513,51.193 37.468,51.193 
			37.468,51.24 37.468,51.286 37.419,51.286 37.419,51.333 37.37,51.333 37.37,51.382 37.419,51.382 37.37,51.382 37.37,51.43 
			37.37,51.475 37.326,51.475 37.326,51.43 37.277,51.475 37.277,51.521 37.233,51.521 37.233,51.568 37.233,51.614 37.277,51.661 
			37.277,51.708 37.277,51.756 37.233,51.756 37.233,51.803 37.233,51.849 37.233,51.896 37.233,51.941 37.184,51.988 
			37.184,52.038 37.184,52.084 37.138,52.129 37.138,52.177 37.138,52.225 37.09,52.225 37.09,52.272 37.09,52.318 37.09,52.364 
			37.09,52.412 37.09,52.459 37.09,52.507 37.042,52.507 37.042,52.551 37.042,52.599 37.042,52.646 37.042,52.693 37.042,52.739 
			37.042,52.787 37.042,52.835 37.042,52.882 37.042,52.928 37.042,52.972 37.09,52.972 37.09,53.021 37.138,53.021 37.138,53.067 
			37.138,53.115 37.184,53.115 37.184,53.16 37.184,53.209 37.233,53.255 37.233,53.304 37.277,53.349 37.277,53.396 37.233,53.396 
			37.233,53.441 37.277,53.441 37.326,53.441 37.326,53.488 37.326,53.537 37.37,53.583 37.37,53.631 37.37,53.677 37.419,53.677 
			37.419,53.726 37.468,53.726 37.468,53.771 37.468,53.818 37.513,53.864 37.513,53.912 37.559,53.912 37.559,53.961 
			37.559,54.004 37.513,54.004 37.513,54.051 37.513,54.1 37.468,54.147 37.468,54.192 37.468,54.24 37.468,54.288 37.513,54.288 
			37.513,54.335 37.513,54.381 37.468,54.428 37.419,54.475 37.419,54.521 37.419,54.567 37.419,54.614 37.419,54.662 
			37.468,54.662 37.468,54.708 37.468,54.757 37.513,54.757 37.513,54.803 37.513,54.85 37.468,54.85 37.468,54.896 37.468,54.942 
			37.513,54.942 37.513,54.99 37.559,55.037 37.559,55.083 37.605,55.083 37.605,55.037 37.651,54.99 37.7,54.99 37.7,55.037 
			37.7,55.083 37.7,55.131 37.747,55.131 37.794,55.131 37.794,55.179 37.794,55.226 37.747,55.271 37.747,55.316 37.747,55.366 
			37.747,55.411 37.747,55.457 37.747,55.505 37.747,55.554 37.7,55.554 37.7,55.6 37.651,55.6 37.651,55.554 37.605,55.6 
			37.605,55.646 37.605,55.693 37.651,55.693 37.605,55.785 37.651,55.785 37.651,55.835 37.7,55.835 37.747,55.881 37.747,55.927 
			37.747,55.974 37.7,55.974 37.7,56.021 37.7,56.067 37.7,56.115 37.7,56.162 37.7,56.21 37.7,56.256 37.747,56.256 37.747,56.302 
			37.747,56.349 37.7,56.396 37.559,56.584 37.419,56.725 37.37,56.772 37.233,56.958 37.09,57.101 37.042,57.146 36.948,57.334 
			36.857,57.428 36.762,57.522 36.668,57.615 36.573,57.756 36.481,57.849 36.387,57.989 36.341,58.083 36.199,58.223 
			36.105,58.318 36.059,58.46 35.966,58.507 35.873,58.646 35.777,58.739 35.777,58.788 35.546,59.068 35.262,59.443 34.933,59.818 
			34.606,60.24 34.465,60.708 34.419,60.897 34.37,61.178 34.325,61.317 34.278,61.598 34.229,61.694 34.185,62.02 34.092,62.305 
			34.092,62.349 34.045,62.536 33.95,63.004 33.857,63.426 33.857,63.474 33.762,63.896 33.715,63.942 33.624,64.366 33.624,64.506 
			33.574,64.694 33.574,64.739 33.529,64.879 33.529,64.926 33.481,65.115 33.433,65.256 33.433,65.303 33.387,65.489 
			33.387,65.537 33.34,65.677 33.34,65.722 33.293,65.865 33.293,65.911 33.246,66.054 33.246,66.1 33.246,66.146 33.199,66.286 
			33.199,66.332 33.199,66.38 33.154,66.429 33.154,66.475 33.154,66.521 33.154,66.568 33.106,66.568 33.106,66.614 33.059,66.662 
			33.059,66.708 33.012,66.753 32.966,66.753 32.966,66.802 32.92,66.802 32.871,66.849 32.871,66.802 32.825,66.802 32.777,66.802 
			32.73,66.802 32.686,66.802 32.64,66.802 32.591,66.802 32.542,66.802 32.542,66.753 32.497,66.753 32.447,66.753 32.403,66.753 
			32.403,66.708 32.356,66.708 32.309,66.708 32.262,66.708 32.214,66.708 32.214,66.662 32.17,66.662 32.12,66.662 32.073,66.708 
			32.026,66.708 31.979,66.753 31.979,66.802 31.934,66.753 31.934,66.708 31.888,66.708 31.841,66.708 31.841,66.753 
			31.793,66.708 31.746,66.708 31.746,66.753 31.701,66.802 31.652,66.802 31.652,66.849 31.607,66.849 31.607,66.802 
			31.559,66.802 31.513,66.849 31.513,66.896 31.513,66.941 31.559,66.941 31.559,66.99 31.559,67.038 31.559,67.085 31.513,67.085 
			31.513,67.129 31.513,67.176 31.466,67.223 31.466,67.271 31.418,67.318 31.418,67.364 31.372,67.364 31.323,67.364 
			31.323,67.412 31.277,67.412 31.277,67.459 31.231,67.459 31.184,67.505 31.137,67.505 31.137,67.553 31.092,67.553 31.092,67.6 
			31.044,67.6 31.044,67.646 30.997,67.692 30.949,67.739 30.949,67.787 30.855,67.787 30.81,67.787 30.762,67.787 30.762,67.832 
			30.718,67.881 30.762,67.929 30.718,67.929 30.718,67.881 30.718,67.929 30.668,67.929 30.668,67.973 30.619,67.973 
			30.574,67.973 30.528,67.973 30.528,68.021 30.528,68.066 30.574,68.066 30.619,68.066 30.619,68.116 30.574,68.116 
			30.619,68.116 30.668,68.116 30.619,68.116 30.619,68.16 30.574,68.16 30.574,68.207 30.574,68.255 30.574,68.303 30.574,68.349 
			30.528,68.349 30.528,68.396 30.48,68.396 30.48,68.444 30.48,68.491 30.48,68.537 30.48,68.583 30.48,68.629 30.528,68.629 
			30.528,68.676 30.48,68.676 30.48,68.724 30.48,68.771 30.48,68.818 30.48,68.864 30.48,68.908 30.48,68.961 30.48,69.004 
			30.528,69.05 30.48,69.05 30.434,69.05 30.434,69.1 30.434,69.146 30.434,69.192 30.388,69.192 30.388,69.238 30.341,69.286 
			30.341,69.335 30.293,69.335 30.247,69.335 30.2,69.381 30.153,69.381 30.153,69.335 30.153,69.381 30.153,69.428 30.106,69.428 
			30.058,69.428 30.014,69.428 30.014,69.474 29.967,69.474 29.967,69.521 30.014,69.521 30.014,69.566 30.014,69.614 30.014,69.66 
			30.014,69.708 30.058,69.708 30.058,69.755 30.106,69.755 30.106,69.803 30.058,69.849 30.058,69.896 30.058,69.944 
			30.014,69.944 30.014,69.988 30.014,70.038 29.967,70.082 30.014,70.13 29.967,70.13 30.014,70.13 30.014,70.177 29.967,70.177 
			30.014,70.177 30.058,70.226 30.014,70.226 30.014,70.271 30.058,70.271 30.058,70.317 30.058,70.365 30.058,70.414 30.058,70.46 
			30.058,70.504 30.014,70.55 30.014,70.599 29.967,70.599 29.967,70.646 29.967,70.692 30.014,70.692 30.014,70.739 30.058,70.739 
			30.058,70.787 30.058,70.739 30.106,70.739 30.106,70.787 30.106,70.835 30.058,70.881 30.058,70.927 30.058,70.881 
			30.106,70.881 30.106,70.927 30.106,70.974 30.106,71.022 30.153,71.022 30.153,71.067 30.153,71.113 30.2,71.113 30.247,71.113 
			30.247,71.161 30.293,71.161 30.247,71.209 30.247,71.257 30.2,71.302 30.153,71.302 30.153,71.351 30.2,71.351 30.2,71.395 
			30.247,71.395 30.247,71.44 30.293,71.44 30.341,71.44 30.293,71.49 30.293,71.536 30.247,71.536 30.293,71.536 30.293,71.583 
			30.247,71.583 30.293,71.583 30.293,71.63 30.293,71.678 30.247,71.678 30.247,71.725 30.2,71.725 30.2,71.77 30.247,71.77 
			30.247,71.818 30.293,71.77 30.293,71.818 30.341,71.818 30.341,71.864 30.388,71.864 30.341,71.864 30.388,71.864 30.388,71.911 
			30.388,71.957 30.388,72.004 30.434,72.004 30.434,72.053 30.434,72.1 30.388,72.1 30.434,72.1 30.388,72.146 30.434,72.146 
			30.434,72.192 30.434,72.239 30.434,72.287 30.48,72.287 30.48,72.334 30.528,72.334 30.528,72.38 30.528,72.334 30.574,72.334 
			30.574,72.38 30.574,72.334 30.619,72.334 30.619,72.38 30.619,72.334 30.668,72.38 30.668,72.334 30.718,72.38 30.668,72.38 
			30.718,72.38 30.718,72.428 30.762,72.428 30.762,72.473 30.762,72.521 30.81,72.521 30.762,72.521 30.762,72.566 30.762,72.521 
			30.718,72.521 30.718,72.566 30.668,72.566 30.668,72.615 30.718,72.615 30.718,72.662 30.668,72.662 30.668,72.709 
			30.619,72.709 30.619,72.756 30.619,72.709 30.619,72.756 30.619,72.801 30.574,72.801 30.574,72.756 30.574,72.801 
			30.528,72.801 30.48,72.801 30.48,72.756 30.434,72.756 30.388,72.801 30.388,72.85 30.388,72.895 30.341,72.85 30.341,72.895 
			30.293,72.895 30.341,72.895 30.341,72.943 30.341,72.988 30.388,72.988 30.388,73.036 30.388,73.083 30.388,73.132 
			30.388,73.177 30.341,73.177 30.341,73.225 30.341,73.272 30.341,73.316 30.341,73.366 30.293,73.366 30.293,73.41 30.247,73.41 
			30.293,73.457 30.247,73.457 30.247,73.505 30.247,73.599 30.2,73.599 30.2,73.646 30.2,73.691 30.247,73.74 30.247,73.787 
			30.247,73.831 30.247,73.879 30.247,73.927 30.293,73.927 30.247,73.974 30.293,73.974 30.293,74.02 30.341,74.02 30.293,74.068 
			30.293,74.115 30.293,74.163 30.293,74.208 30.341,74.208 30.388,74.208 30.388,74.442 29.824,77.113 29.729,77.443 
			29.686,77.724 29.686,77.816 29.591,78.239 29.356,78.19 28.934,78.19 28.746,78.145 28.605,78.145 28.466,78.098 28.325,78.098 
			28.138,78.098 27.997,78.098 27.762,78.098 27.527,78.052 27.34,78.004 27.106,77.959 26.966,77.959 26.778,77.912 26.544,77.912 
			26.355,77.912 26.168,77.912 25.981,77.865 25.793,77.865 25.652,77.816 25.513,77.771 25.278,77.724 25.044,77.677 
			24.856,77.677 24.714,77.628 24.48,77.582 24.341,77.537 24.201,77.491 23.873,77.395 23.684,77.349 23.498,77.349 23.355,77.302 
			23.261,77.255 23.027,77.255 22.842,77.16 22.655,77.113 22.559,77.021 22.418,76.927 22.229,76.881 22.137,76.785 21.95,76.694 
			21.717,76.552 21.574,76.505 21.434,76.459 21.199,76.459 21.059,76.364 20.965,76.271 20.826,76.131 20.732,75.989 
			20.591,75.801 20.542,75.615 20.497,75.521 20.402,75.24 20.354,75.145 20.264,74.959 20.264,74.819 20.264,74.629 20.264,74.442 
			20.308,74.208 20.308,74.02 20.308,73.831 20.354,73.646 20.354,73.505 20.402,73.316 20.402,73.177 20.449,72.988 20.449,72.709 
			20.497,72.521 20.542,72.192 20.542,71.911 20.542,71.725 20.542,71.536 20.542,71.395 20.542,71.209 20.497,71.022 
			20.449,70.835 20.449,70.692 20.354,70.55 20.264,70.365 20.169,70.177 20.121,70.038 20.075,69.896 19.98,69.755 19.935,69.614 
			19.747,69.335 19.7,69.192 19.606,69.1 19.465,68.864 19.324,68.724 19.23,68.583 19.09,68.349 18.996,68.255 18.903,68.16 
			18.762,68.066 18.481,67.881 18.247,67.739 18.153,67.692 17.917,67.553 17.777,67.505 17.637,67.412 17.45,67.318 17.309,67.223 
			17.168,67.129 16.981,67.038 16.794,66.941 16.655,66.896 16.512,66.849 16.185,66.896 15.855,66.896 15.529,66.849 
			15.294,66.802 15.202,66.802 15.013,66.802 14.779,66.753 14.496,66.753 14.356,66.753 14.216,66.753 14.075,66.753 
			13.699,66.708 13.512,66.662 13.372,66.614 13.23,66.521 13.044,66.429 12.903,66.332 12.715,66.286 12.669,66.146 12.576,65.911 
			12.576,65.77 12.576,65.584 12.576,65.489 12.576,65.303 12.528,65.163 12.48,64.926 12.433,64.645 12.388,64.458 12.339,64.271 
			12.293,64.131 12.201,63.99 12.06,63.756 11.871,63.614 11.731,63.474 11.543,63.287 11.45,63.147 11.356,63.004 11.216,62.816 
			11.121,62.631 11.027,62.489 10.935,62.349 10.886,62.208 10.748,62.02 10.558,61.834 10.418,61.787 10.23,61.646 10.045,61.598 
			9.903,61.552 9.762,61.505 9.622,61.457 9.338,61.412 9.013,61.412 8.636,61.317 8.45,61.317 8.263,61.317 8.123,61.317 
			7.98,61.366 7.792,61.366 7.511,61.366 7.373,61.225 7.277,61.129 7.231,61.036 7.09,60.851 7.09,60.708 7.137,60.521 
			7.183,60.381 7.231,60.192 7.324,60.052 7.417,59.865 7.466,59.676 7.56,59.539 7.605,59.397 7.7,59.208 7.746,59.068 
			7.887,58.834 7.98,58.739 8.074,58.553 8.216,58.365 8.309,58.178 8.263,57.944 8.167,57.708 8.074,57.522 8.074,57.38 
			8.074,57.101 8.123,56.865 8.216,56.632 8.309,56.443 8.403,56.21 8.496,56.115 8.592,55.927 8.73,55.739 8.826,55.6 
			8.919,55.411 8.965,55.271 9.013,55.131 9.059,54.85 9.104,54.614 9.104,54.475 9.481,53.537 9.776,53.465 9.951,53.396 
			10.325,53.349 10.84,52.882 11.261,52.551 11.684,52.177 12.06,51.941 12.433,51.803 12.762,51.614 13.184,51.43 13.559,51.43 
			13.885,51.43 14.262,51.43 14.591,51.521 14.966,51.614 15.435,51.896 15.808,52.225 16.137,52.551 16.512,52.646 16.84,52.599 
			17.168,52.364 17.496,52.177 17.825,52.225 18.247,52.364 18.62,52.551 18.996,52.787 19.373,53.021 19.793,53.304 20.169,53.488 
			20.542,53.537 20.87,53.537 21.246,53.396 21.623,53.255 21.996,53.021 22.418,52.739 22.749,52.364 23.076,51.988 23.027,51.614 
			22.699,51.24 22.372,51.054 21.95,51.006 21.574,50.913 21.199,50.819 20.87,50.724 20.497,50.584 20.121,50.35 19.793,50.022 
			19.606,49.694 19.417,49.366 19.373,49.037 19.465,48.616 19.56,48.24 19.793,47.864 19.98,47.49 20.169,47.207 20.308,46.974 
			20.449,46.741 20.684,46.364 21.011,46.271 21.434,46.271 21.81,46.412 22.418,46.741 22.749,46.88 23.076,47.068 23.544,47.255 
			23.917,47.443 24.246,47.49 24.62,47.537 25.044,47.632 25.465,47.584 25.793,47.396 25.981,46.974 		"/>
		<polyline points="25.981,46.974 25.84,46.646 25.746,46.318 25.889,45.99 26.076,45.663 26.496,45.614 26.872,45.614 
			27.296,45.663 27.714,45.709 28.091,45.663 28.419,45.569 28.794,45.521 29.214,45.614 29.591,45.804 29.967,45.804 
			30.293,45.709 30.619,45.521 30.997,45.194 31.323,44.772 31.701,44.442 31.888,44.067 32.214,43.929 32.591,43.788 
			32.871,43.692 33.293,43.552 33.624,43.366 33.95,43.178 34.229,43.225 34.465,43.6 34.606,44.021 34.794,44.395 35.028,44.818 
			35.216,45.146 35.591,45.521 35.873,45.663 		"/>
		<polyline points="9.481,53.537 9.104,54.475 9.104,54.614 9.059,54.85 9.013,55.131 8.965,55.271 8.919,55.411 8.826,55.6 
			8.73,55.739 8.592,55.927 8.496,56.115 8.403,56.21 8.309,56.443 8.216,56.632 8.123,56.865 8.074,57.101 8.074,57.38 
			8.074,57.522 8.167,57.708 8.263,57.944 8.309,58.178 8.216,58.365 8.074,58.553 7.98,58.739 7.887,58.834 7.746,59.068 
			7.7,59.208 7.605,59.397 7.56,59.539 7.466,59.676 7.417,59.865 7.324,60.052 7.231,60.192 7.183,60.381 7.137,60.521 
			7.09,60.708 7.09,60.851 7.231,61.036 7.277,61.129 7.373,61.225 7.511,61.366 7.792,61.366 7.98,61.366 8.123,61.317 
			8.263,61.317 8.45,61.317 8.636,61.317 9.013,61.412 9.338,61.412 9.622,61.457 9.762,61.505 9.903,61.552 10.045,61.598 
			10.23,61.646 10.418,61.787 10.558,61.834 10.748,62.02 10.886,62.208 10.935,62.349 11.027,62.489 11.121,62.631 11.216,62.816 
			11.356,63.004 11.45,63.147 11.543,63.287 11.731,63.474 11.871,63.614 12.06,63.756 12.201,63.99 12.293,64.131 12.339,64.271 
			12.388,64.458 12.433,64.645 12.48,64.926 12.528,65.163 12.576,65.303 12.576,65.489 12.576,65.584 12.576,65.77 12.576,65.911 
			12.669,66.146 12.715,66.286 12.903,66.332 13.044,66.429 13.23,66.521 13.372,66.614 13.512,66.662 13.699,66.708 14.075,66.753 
			14.216,66.753 14.356,66.753 14.496,66.753 14.779,66.753 15.013,66.802 15.202,66.802 15.294,66.802 15.529,66.849 
			15.855,66.896 16.185,66.896 16.512,66.849 16.655,66.896 16.794,66.941 16.981,67.038 17.168,67.129 17.309,67.223 17.45,67.318 
			17.637,67.412 17.777,67.505 17.917,67.553 18.153,67.692 18.247,67.739 18.481,67.881 18.762,68.066 18.903,68.16 18.996,68.255 
			19.09,68.349 19.23,68.583 19.324,68.724 19.465,68.864 19.606,69.1 19.7,69.192 19.747,69.335 19.935,69.614 19.98,69.755 
			20.075,69.896 20.121,70.038 20.169,70.177 20.264,70.365 20.354,70.55 20.449,70.692 20.449,70.835 20.497,71.022 20.542,71.209 
			20.542,71.395 20.542,71.536 20.542,71.725 20.542,71.911 20.542,72.192 20.497,72.521 20.449,72.709 20.449,72.988 
			20.402,73.177 20.402,73.316 20.354,73.505 20.354,73.646 20.308,73.831 20.308,74.02 20.308,74.208 20.264,74.442 20.264,74.629 
			20.264,74.819 20.264,74.959 20.354,75.145 20.402,75.24 20.497,75.521 20.542,75.615 20.591,75.801 20.732,75.989 20.826,76.131 
			20.965,76.271 21.059,76.364 21.199,76.459 21.434,76.459 21.574,76.505 21.717,76.552 21.95,76.694 22.137,76.785 22.229,76.881 
			22.418,76.927 22.559,77.021 22.655,77.113 22.842,77.16 23.027,77.255 23.261,77.255 23.355,77.302 23.498,77.349 23.684,77.349 
			23.873,77.395 24.201,77.491 24.341,77.537 24.48,77.582 24.714,77.628 24.856,77.677 25.044,77.677 25.278,77.724 25.513,77.771 
			25.652,77.816 25.793,77.865 25.981,77.865 26.168,77.912 26.355,77.912 26.544,77.912 26.778,77.912 26.966,77.959 
			27.106,77.959 27.34,78.004 27.527,78.052 27.762,78.098 27.997,78.098 28.138,78.098 28.325,78.098 28.466,78.098 28.605,78.145 
			28.746,78.145 28.934,78.19 29.356,78.19 		"/>
		<line x1="9.315" y1="53.577" x2="9.481" y2="53.537"/>
	</g>
	<g>
		<polyline fill="none" stroke="#000000" stroke-width="3" stroke-miterlimit="10" points="68.027,64.786 68.132,64.814 
			68.299,64.874 70.145,65.425 70.377,65.514 70.62,65.583 71.348,65.822 71.741,66.036 71.935,66.104 72.297,66.139 72.644,66.295 
			72.748,66.375 72.975,66.699 73.171,66.94 73.255,67.075 73.684,68.51 73.762,68.639 75.321,70.381 75.449,70.526 75.503,70.61 
			75.603,70.702 75.772,70.904 75.923,71.023 76.774,71.418 76.943,71.539 77.237,71.848 78.12,72.711 78.355,72.963 78.403,73.023 
			78.485,73.183 78.571,73.284 78.706,73.321 78.804,73.32 78.888,73.302 79.075,73.205 79.301,73.021 79.662,72.767 79.878,72.541 
			80.066,72.371 80.363,72.139 80.425,72.016 80.449,71.609 80.441,71.437 80.488,71.136 80.531,70.978 80.744,70.648 
			80.812,70.575 80.896,70.591 80.983,70.655 81.024,70.784 81.018,71.012 81.047,71.15 81.227,71.387 81.319,71.539 81.412,71.73 
					"/>
		<polyline fill="none" stroke="#000000" stroke-width="3" stroke-miterlimit="10" points="51.412,79.374 51.504,79.204 
			51.64,79.049 51.973,78.772 52.099,78.611 52.166,78.471 52.254,78.355 52.615,78.086 52.771,78.005 53.117,77.975 53.301,77.858 
			53.507,77.624 53.62,77.55 53.824,77.467 54.468,77.246 55.023,77.157 55.156,77.11 55.25,77.033 55.291,76.893 55.279,76.559 
			55.346,76.155 55.411,75.938 55.616,75.529 55.755,75.329 55.951,75.126 56.055,75.062 56.124,74.964 56.205,74.717 
			56.325,74.516 56.393,74.437 56.56,74.289 56.86,73.863 56.977,73.656 57.008,73.521 56.982,73.379 56.875,73.226 56.722,73.078 
			56.663,72.988 56.611,72.809 56.637,72.657 56.71,72.577 56.896,72.453 57.488,72.096 57.562,72.037 57.743,71.852 57.847,71.786 
			57.968,71.765 58.172,71.757 58.28,71.675 58.326,71.423 58.396,71.278 58.58,71.067 58.962,70.26 59.086,70.045 59.148,69.872 
			59.362,69.411 59.45,69.238 59.532,69.149 60.448,68.673 61.133,68.338 61.356,68.295 61.52,68.279 61.714,68.207 61.772,68.127 
			61.796,68.04 61.794,67.712 61.841,67.604 62.232,67.206 62.378,67.142 62.977,67.119 65.796,67.081 65.942,67.01 66.354,66.628 
			66.378,66.604 67.212,65.777 67.48,65.514 67.957,64.879 67.971,64.848 		"/>
		<polyline fill="none" stroke="#000000" stroke-width="3" stroke-miterlimit="10" points="45.086,61.234 46.17,61.284 
			46.491,61.313 46.779,61.339 47.014,61.367 47.438,61.42 47.76,61.46 47.831,61.47 47.979,61.486 48.306,61.514 48.561,61.539 
			48.872,61.584 49.143,61.614 49.25,61.629 49.454,61.656 50.029,61.748 50.582,61.838 51.206,61.923 52.007,62.023 52.38,62.076 
			52.531,62.096 52.763,62.123 53.019,62.16 53.182,62.181 53.504,62.226 53.741,62.255 53.808,62.262 53.95,62.281 54.258,62.321 
			54.336,62.331 54.759,62.381 54.968,62.409 55.769,62.503 55.951,62.527 56.158,62.554 56.61,62.608 57.038,62.657 57.331,62.694 
			57.675,62.742 57.94,62.781 58.191,62.815 58.711,62.875 59.017,62.913 59.224,62.94 59.428,62.967 59.87,63.023 60.049,63.049 
			60.461,63.103 61.198,63.19 61.558,63.232 61.636,63.24 61.79,63.261 61.979,63.284 62.407,63.337 62.446,63.341 62.789,63.384 
			63.121,63.43 63.491,63.48 63.576,63.491 63.733,63.513 64,63.542 64.123,63.557 64.219,63.568 64.318,63.588 64.614,63.69 
			64.641,63.699 65.102,63.857 65.318,63.927 65.623,64.026 65.962,64.136 66.218,64.216 66.402,64.284 66.507,64.316 
			67.943,64.811 67.958,64.816 		"/>
		<polyline fill="none" stroke="#000000" stroke-width="3" stroke-miterlimit="10" points="67.943,64.811 68.013,64.789 
			68.033,64.767 68.336,64.379 68.353,64.355 68.489,64.167 68.584,64.035 68.703,63.877 68.783,63.766 68.846,63.68 68.876,63.63 
			68.954,63.494 68.976,63.448 69.051,63.271 69.107,63.144 69.116,63.084 69.13,62.993 69.134,62.914 69.139,62.771 69.14,62.739 
			69.139,62.57 69.138,62.438 69.139,62.361 69.148,62.317 69.337,61.823 69.453,61.512 69.582,61.236 69.829,60.889 69.975,60.727 
			70.117,60.579 70.193,60.527 70.271,60.484 70.445,60.432 70.806,60.399 71.098,60.299 71.382,60.189 71.668,60.077 71.806,60.02 
			71.937,59.957 72.054,59.895 72.158,59.824 72.39,59.671 72.801,59.314 72.958,59.162 73.101,59.013 73.366,58.681 73.641,58.337 
			73.836,58.124 73.969,57.988 74.079,57.844 74.143,57.708 74.211,57.522 74.297,57.095 74.327,56.995 74.354,56.912 
			74.419,56.758 74.497,56.611 74.663,56.332 74.748,56.231 74.948,56.051 75.056,55.936 75.125,55.785 75.149,55.706 
			75.171,55.621 75.193,55.498 75.174,55.369 75.114,55.223 74.989,55.025 74.861,54.839 74.775,54.609 74.756,54.456 
			74.762,54.124 74.736,54.004 74.623,53.478 74.673,53.108 74.674,52.963 74.673,52.806 74.662,52.501 74.69,52.28 74.731,52.179 
			74.782,52.076 74.869,51.928 74.875,51.814 74.838,51.586 74.717,51.421 74.543,51.31 74.344,51.185 74.215,51.103 74.086,51.052 
			73.903,51.027 73.807,51.008 73.733,50.972 73.669,50.896 73.629,50.804 73.578,50.422 73.556,50.312 73.538,50.253 
			73.434,50.021 73.255,49.647 73.175,49.498 73.087,49.351 72.996,49.213 72.888,49.085 72.851,49.062 72.747,49.011 
			72.557,48.939 72.368,48.874 72.2,48.758 72.062,48.607 71.865,48.388 71.676,48.169 71.521,47.91 71.389,47.644 71.136,47.06 
			71,46.628 70.861,46.138 70.767,45.866 70.647,45.617 70.423,45.141 70.308,44.889 		"/>
	</g>
	<g>
		<polyline fill="none" stroke="#FFFFFF" stroke-linecap="round" stroke-miterlimit="10" points="68.042,64.786 68.147,64.814 
			68.313,64.874 70.158,65.425 70.393,65.514 70.634,65.583 71.362,65.822 71.757,66.036 71.949,66.104 72.31,66.139 72.658,66.295 
			72.764,66.375 72.988,66.699 73.186,66.94 73.271,67.075 73.698,68.51 73.775,68.639 75.336,70.381 75.465,70.526 75.519,70.61 
			75.615,70.702 75.788,70.904 75.938,71.023 76.79,71.418 76.957,71.539 77.253,71.848 78.133,72.711 78.371,72.963 78.418,73.023 
			78.501,73.183 78.587,73.284 78.722,73.321 78.819,73.32 78.903,73.302 79.088,73.205 79.315,73.021 79.677,72.767 79.893,72.541 
			80.082,72.371 80.377,72.139 80.44,72.016 80.464,71.609 80.457,71.437 80.504,71.136 80.547,70.978 80.759,70.648 80.827,70.575 
			80.912,70.591 80.997,70.655 81.04,70.784 81.031,71.012 81.062,71.15 81.239,71.387 81.332,71.539 81.428,71.73 		"/>
		<polyline fill="none" stroke="#FFFFFF" stroke-linecap="round" stroke-miterlimit="10" points="51.428,79.374 51.517,79.204 
			51.655,79.049 51.988,78.772 52.114,78.611 52.182,78.471 52.27,78.355 52.631,78.086 52.786,78.005 53.133,77.975 53.313,77.858 
			53.522,77.624 53.635,77.55 53.837,77.467 54.483,77.246 55.039,77.157 55.172,77.11 55.265,77.033 55.307,76.893 55.292,76.559 
			55.361,76.155 55.426,75.938 55.632,75.529 55.769,75.329 55.966,75.126 56.07,75.062 56.14,74.964 56.221,74.717 56.341,74.516 
			56.407,74.437 56.574,74.289 56.876,73.863 56.992,73.656 57.021,73.521 56.996,73.379 56.888,73.226 56.737,73.078 
			56.676,72.988 56.627,72.809 56.652,72.657 56.724,72.577 56.91,72.453 57.504,72.096 57.577,72.037 57.759,71.852 57.859,71.786 
			57.983,71.765 58.186,71.757 58.296,71.675 58.34,71.423 58.411,71.278 58.595,71.067 58.976,70.26 59.102,70.045 59.162,69.872 
			59.375,69.411 59.466,69.238 59.547,69.149 60.461,68.673 61.147,68.338 61.371,68.295 61.535,68.279 61.729,68.207 
			61.788,68.127 61.811,68.04 61.809,67.712 61.856,67.604 62.246,67.206 62.393,67.142 62.99,67.119 65.811,67.081 65.958,67.01 
			66.37,66.628 66.394,66.604 67.228,65.777 67.495,65.514 67.971,64.879 67.986,64.848 		"/>
		<polyline fill="none" stroke="#FFFFFF" stroke-linecap="round" stroke-miterlimit="10" points="45.102,61.234 46.184,61.284 
			46.507,61.313 46.791,61.339 47.028,61.367 47.454,61.42 47.773,61.46 47.845,61.47 47.995,61.486 48.321,61.514 48.576,61.539 
			48.888,61.584 49.158,61.614 49.266,61.629 49.47,61.656 50.041,61.748 50.597,61.838 51.22,61.923 52.022,62.023 52.393,62.076 
			52.547,62.096 52.778,62.123 53.033,62.16 53.194,62.181 53.52,62.226 53.757,62.255 53.823,62.262 53.965,62.281 54.273,62.321 
			54.352,62.331 54.774,62.381 54.983,62.409 55.784,62.503 55.966,62.527 56.174,62.554 56.625,62.608 57.054,62.657 
			57.343,62.694 57.69,62.742 57.954,62.781 58.207,62.815 58.726,62.875 59.03,62.913 59.239,62.94 59.443,62.967 59.883,63.023 
			60.063,63.049 60.477,63.103 61.214,63.19 61.571,63.232 61.649,63.24 61.804,63.261 61.994,63.284 62.423,63.337 62.462,63.341 
			62.805,63.384 63.135,63.43 63.507,63.48 63.591,63.491 63.746,63.513 64.016,63.542 64.138,63.557 64.23,63.568 64.331,63.588 
			64.628,63.69 64.654,63.699 65.117,63.857 65.33,63.927 65.639,64.026 65.975,64.136 66.232,64.216 66.416,64.284 66.522,64.316 
			67.958,64.811 67.974,64.816 		"/>
		<polyline fill="none" stroke="#FFFFFF" stroke-linecap="round" stroke-miterlimit="10" points="67.958,64.811 68.027,64.789 
			68.048,64.767 68.35,64.379 68.368,64.355 68.503,64.167 68.599,64.035 68.718,63.877 68.799,63.766 68.86,63.68 68.891,63.63 
			68.969,63.494 68.99,63.448 69.066,63.271 69.123,63.144 69.131,63.084 69.146,62.993 69.146,62.914 69.154,62.771 69.155,62.739 
			69.154,62.57 69.151,62.438 69.154,62.361 69.164,62.317 69.353,61.823 69.468,61.512 69.598,61.236 69.845,60.889 69.989,60.727 
			70.133,60.579 70.209,60.527 70.286,60.484 70.461,60.432 70.82,60.399 71.112,60.299 71.396,60.189 71.684,60.077 71.82,60.02 
			71.952,59.957 72.068,59.895 72.174,59.824 72.404,59.671 72.816,59.314 72.974,59.162 73.115,59.013 73.381,58.681 
			73.654,58.337 73.852,58.124 73.984,57.988 74.095,57.844 74.157,57.708 74.226,57.522 74.312,57.095 74.342,56.995 
			74.369,56.912 74.435,56.758 74.513,56.611 74.679,56.332 74.764,56.231 74.962,56.051 75.071,55.936 75.138,55.785 
			75.165,55.706 75.187,55.621 75.206,55.498 75.189,55.369 75.128,55.223 75.004,55.025 74.875,54.839 74.791,54.609 
			74.771,54.456 74.775,54.124 74.748,54.004 74.639,53.478 74.687,53.108 74.689,52.963 74.688,52.806 74.678,52.501 74.705,52.28 
			74.747,52.179 74.798,52.076 74.883,51.928 74.891,51.814 74.851,51.586 74.73,51.421 74.559,51.31 74.359,51.185 74.229,51.103 
			74.102,51.052 73.918,51.027 73.818,51.008 73.749,50.972 73.683,50.896 73.642,50.804 73.594,50.422 73.571,50.312 
			73.553,50.253 73.449,50.021 73.271,49.647 73.19,49.498 73.103,49.351 73.01,49.213 72.903,49.085 72.864,49.062 72.763,49.011 
			72.572,48.939 72.384,48.874 72.216,48.758 72.076,48.607 71.878,48.388 71.689,48.169 71.535,47.91 71.404,47.644 71.15,47.06 
			71.013,46.628 70.877,46.138 70.782,45.866 70.663,45.617 70.437,45.141 70.323,44.889 		"/>
	</g>
	<rect x="91.32" y="46.846" width="11.82" height="12.074"/>
	<rect x="104.4" y="46.846" width="11.822" height="12.074"/>
	<rect x="104.4" y="59.926" width="11.822" height="12.074"/>
	<rect x="91.32" y="60.178" width="11.82" height="12.075"/>
</g>
</svg>
