<?xml version="1.0" encoding="utf-8"?>
<!-- Generator: Adobe Illustrator 15.0.0, SVG Export Plug-In . SVG Version: 6.00 Build 0)  -->
<!DOCTYPE svg PUBLIC "-//W3C//DTD SVG 1.1//EN" "http://www.w3.org/Graphics/SVG/1.1/DTD/svg11.dtd">
<svg version="1.1" id="Layer_1" xmlns="http://www.w3.org/2000/svg" xmlns:xlink="http://www.w3.org/1999/xlink" x="0px" y="0px"
	 width="40px" height="40px" viewBox="0 0 40 40" enable-background="new 0 0 40 40" xml:space="preserve">
<g>
	<circle fill="#FF0000" cx="21.425" cy="22.395" r="12.263"/>
</g>
<g>
	<g>
		<polygon fill="#FF0000" points="35.385,32.572 35.182,32.572 34.307,32.358 33.603,31.484 32.562,30.455 31.302,29.736 
			30.775,29.123 28.883,26.871 28.353,25.347 27.607,25.105 27.333,24.957 26.24,24.596 24.216,23.981 24.206,23.982 25.009,21.092 
			28.645,22.256 28.881,22.384 29.269,22.422 30.241,22.937 30.425,23.076 31.215,24.203 31.626,25.575 33.356,27.518 
			34.513,28.155 35.495,29.142 35.517,29.104 35.726,28.109 36.289,27.31 36.852,26.7 38.004,26.914 38.846,27.485 39.113,28.327 
			39.111,28.396 39.345,28.834 38.567,29.207 38.583,29.217 38.528,29.301 38.531,29.371 38.485,30.167 38.13,30.866 35.987,32.473 
					"/>
	</g>
	<g>
		<polygon fill="#FF0000" points="9.181,37.953 9.085,37.838 8.726,37.521 6.673,36.412 7.261,35.648 8.655,34.428 8.923,34.287 
			9.096,34.231 9.844,33.827 10.463,33.565 10.651,33.018 11.257,32.038 11.498,31.7 11.823,31.226 11.655,30.648 11.813,29.722 
			12.463,29.077 13.714,28.195 13.895,27.988 14.788,26.129 15.183,25.693 17.052,24.743 17.158,24.502 17.944,23.701 
			18.617,23.404 19.504,23.372 21.851,23.339 21.915,23.28 22.931,22.274 23.338,21.731 24.481,22.588 25.926,23.201 25.738,23.53 
			25.111,24.338 23.378,26.016 22.729,26.327 19.776,26.368 19.755,26.449 19.296,27.129 18.44,27.506 18.182,27.53 17.194,28.028 
			16.323,29.769 16.231,30.269 15.284,30.988 15.063,30.997 15.12,31.308 14.972,31.956 14.667,32.479 14.13,33.185 14.062,33.392 
			13.685,33.934 13.488,34.052 13.364,34.406 13.38,34.832 13.14,35.656 12.479,36.19 11.844,36.389 11.415,36.458 11.008,36.6 
			10.868,36.76 10.193,37.19 9.92,37.213 9.514,37.676 9.209,37.948 9.199,37.938 		"/>
	</g>
	<g>
		<polygon fill="#FF0000" points="24.013,23.973 20.392,22.781 2.617,20.529 1.599,20.484 1.735,17.487 6.234,17.921 21.384,19.92 
			25.012,21.145 24.539,22.568 		"/>
	</g>
	<g>
		<polygon fill="#FF0000" points="25.032,23.976 24.539,22.493 23.465,21.554 24.222,20.462 24.219,20.181 24.268,19.712 
			24.941,18.117 25.722,17.181 26.191,16.887 26.884,16.691 27.199,16.63 28.061,16.226 28.546,15.783 29.354,14.818 29.754,13.659 
			30.056,13.167 29.834,12.289 29.839,12.021 29.682,11.287 29.754,10.557 29.738,10.182 29.747,10.116 29.449,9.969 29.027,9.526 
			28.75,8.959 28.645,8.38 28.456,8.042 28.267,7.976 27.538,7.374 26.968,6.687 26.628,6.063 26.15,4.829 25.876,4.019 
			25.524,3.265 28.253,2.017 28.859,3.4 29.124,4.285 29.583,5.161 29.711,5.304 30.435,5.674 31.046,6.484 31.602,7.588 
			32.343,8.061 32.841,8.743 32.961,9.483 32.929,10.12 32.75,10.427 32.754,10.961 32.725,11.171 32.845,11.73 32.84,11.98 
			33.211,12.724 33.293,13.267 33.003,14.307 32.901,14.531 32.333,15.22 31.949,16.38 30.424,18.145 29.228,19.03 27.702,19.627 
			27.539,19.642 27.418,19.845 27.221,20.49 27.146,21.263 26.502,22.505 25.441,23.851 		"/>
	</g>
</g>
<g>
	<path fill="#FFFFFF" d="M35.4,31.572l-0.515-0.096l-0.536-0.67l-1.273-1.232l-1.02-0.528L29.8,26.404l-0.457-1.448l-0.361-0.477
		l-0.221-0.1l-0.399-0.054l-0.191-0.068l-0.464-0.243l-3.217-0.996c-0.266-0.073-0.422-0.35-0.348-0.615
		c0.074-0.267,0.346-0.424,0.615-0.348L28.1,23.1l0.525,0.263l0.47,0.072l0.663,0.409l0.573,0.84l0.455,1.453l1.965,2.195
		l1.081,0.555l1.59,1.634l0.015-0.007l0.146-0.13l0.948-0.793l0.015-0.258l-0.008-0.123l0.169-0.754l0.521-0.672l0.387,0.072
		l0.389,0.243l0.122,0.365l-0.011,0.233l0.341,0.561c0.123,0.247,0.023,0.547-0.224,0.671s-0.547,0.023-0.671-0.224l-0.032-0.063
		L37.465,30l-0.198,0.283l-1.725,1.27L35.4,31.572z"/>
</g>
<g>
	<path fill="#FFFFFF" d="M8.008,37.625c-0.079,0-0.158-0.019-0.232-0.058c-0.244-0.128-0.338-0.431-0.209-0.675l0.159-0.271
		l0.138-0.154l0.451-0.464l0.238-0.297l0.672-0.44l0.343-0.04l0.461-0.389l0.875-0.313l0.476-0.082l-0.007-0.163l0.157-0.733
		l0.409-0.747l0.344-0.345l0.092-0.241l0.229-0.343l0.176-0.161l0.295-0.427l-0.298-0.411l-0.077-0.284l0.066-0.404l0.266-0.271
		l0.798-0.492l0.424-0.356l0.19-0.045l0.174-0.316l0.138-0.159l1.063-2.043l1.817-0.9l0.256-0.046l-0.001-0.194l0.19-0.353
		l0.546-0.507l0.33-0.106l0.597-0.021l2.712-0.037l1.461-1.425l0.416-0.564c0.138-0.2,0.404-0.287,0.63-0.183
		c0.25,0.117,0.365,0.399,0.248,0.649l-0.067,0.119l-0.476,0.635l-1.721,1.647l-0.356,0.119l-3.294,0.056l-0.214,0.22l0.001,0.246
		l-0.119,0.319l-0.089,0.122l-0.521,0.234l-0.272,0.037l-1.44,0.729l-1.05,2.034l-0.065,0.377l-0.394,0.294l-0.303,0.012
		l-0.241,0.226l-0.597,0.363l0.249,0.332l0.063,0.35l-0.104,0.37l-0.116,0.207l-0.409,0.557l-0.222,0.25l-0.264,0.521l-0.138,0.083
		l-0.234,0.291l-0.205,0.487l-0.046,0.289l0.017,0.367l-0.11,0.369l-0.495,0.305l-0.643,0.111l-0.709,0.265l-0.268,0.273
		L9.88,36.214L9.445,36.28l-0.927,0.951l-0.067,0.126C8.362,37.528,8.188,37.625,8.008,37.625z"/>
</g>
<g>
	<path fill="#FFFFFF" d="M24.379,23.036l-3.846-1.247L2.721,19.533L1.66,19.485c-0.276-0.013-0.489-0.247-0.477-0.522
		c0.012-0.276,0.247-0.494,0.522-0.477l4.411,0.426l14.892,1.937l3.693,1.24L24.379,23.036z"/>
</g>
<g>
	<path fill="#FFFFFF" d="M24.598,23.042c-0.219,0-0.435-0.129-0.501-0.34c-0.073-0.232,0.005-0.471,0.206-0.58l0.813-1.124
		l0.132-0.308l0.216,0.097l0.263-0.043l-0.498-0.091l0.006-0.326l-0.003-0.194l0.047-0.244l0.449-1.116l0.867-0.959l0.306-0.11
		l0.39-0.045l1.19-0.501l0.225-0.151l0.626-0.585l0.952-1.17l0.054-0.151l0.219-0.786l0.402-0.65l0.303-0.329l0.019-0.092
		l-0.424-0.974l-0.015-0.402l-0.129-0.62l0.06-0.454l-0.014-0.522l0.203-0.719L30.959,9.54l-0.391-0.247l-0.485-0.134L29.735,8.69
		l-0.073-0.53l-0.538-0.95l-0.442-0.174L28.29,6.699l-0.398-0.454l-0.355-0.629L27.271,5.01l-0.479-1.425l-0.345-0.739
		c-0.113-0.252-0.001-0.548,0.251-0.661c0.251-0.114,0.548,0,0.661,0.251l0.57,1.289l0.276,0.936L28.7,5.662l0.493,0.513
		l0.569,0.235l0.438,0.584l0.464,1.081L30.694,8.3l0.302,0.089l0.719,0.488l0.189,0.261l0.069,0.402l-0.02,0.288l-0.181,0.331
		l-0.02,0.154l0.016,0.401l-0.044,0.494l0.131,0.613l-0.005,0.392l0.051,0.146l0.362,0.695l0.028,0.202l-0.278,0.777l-0.369,0.37
		l-0.27,0.581l-0.305,0.919l-1.328,1.525l-1.131,0.797l-1.164,0.423l-0.348,0.033l-0.302,0.293l-0.298,0.504l-0.267,0.836
		l0.002,0.17l-0.016,0.339l-0.509,0.013l0.488,0.125l-0.217,0.533l-0.627,0.903l-0.43,0.551l-0.169,0.069
		C24.705,23.034,24.651,23.042,24.598,23.042z"/>
</g>
</svg>
